<svg width="16" height="15" viewBox="0 0 16 15" fill="none" xmlns="http://www.w3.org/2000/svg">
<path d="M14.9727 7.02734L7.59375 0.623047C7.53711 0.574219 7.46484 0.546875 7.38867 0.546875H5.66016C5.51563 0.546875 5.44922 0.726562 5.55859 0.820312L12.3984 6.75781H0.96875C0.882813 6.75781 0.8125 6.82812 0.8125 6.91406V8.08594C0.8125 8.17188 0.882813 8.24219 0.96875 8.24219H12.3965L5.55664 14.1797C5.44727 14.2754 5.51367 14.4531 5.6582 14.4531H7.44531C7.48242 14.4531 7.51953 14.4395 7.54688 14.4141L14.9727 7.97266C15.0403 7.91386 15.0945 7.84124 15.1316 7.7597C15.1688 7.67816 15.188 7.5896 15.188 7.5C15.188 7.4104 15.1688 7.32184 15.1316 7.2403C15.0945 7.15876 15.0403 7.08614 14.9727 7.02734Z" fill="#7D8590"/>
</svg>
