<svg width="30" height="30" viewBox="0 0 30 30" fill="none" xmlns="http://www.w3.org/2000/svg">
<circle cx="15" cy="15" r="15" fill="#FFE8E0"/>
<path d="M15.9087 14.9961L20.523 9.4959C20.6003 9.40449 20.5353 9.26562 20.4158 9.26562H19.013C18.9304 9.26562 18.8513 9.30254 18.7968 9.36582L14.9912 13.9027L11.1855 9.36582C11.1328 9.30254 11.0537 9.26562 10.9693 9.26562H9.56655C9.44702 9.26562 9.38198 9.40449 9.45932 9.4959L14.0736 14.9961L9.45932 20.4963C9.44199 20.5167 9.43088 20.5416 9.42729 20.5681C9.42371 20.5946 9.4278 20.6216 9.43909 20.6458C9.45038 20.6701 9.46839 20.6906 9.49099 20.7049C9.51358 20.7192 9.5398 20.7267 9.56655 20.7266H10.9693C11.0519 20.7266 11.131 20.6896 11.1855 20.6264L14.9912 16.0895L18.7968 20.6264C18.8496 20.6896 18.9287 20.7266 19.013 20.7266H20.4158C20.5353 20.7266 20.6003 20.5877 20.523 20.4963L15.9087 14.9961Z" fill="#FF3D00"/>
</svg>
