<svg width="16" height="16" viewBox="0 0 16 16" fill="none" xmlns="http://www.w3.org/2000/svg">
<g clip-path="url(#clip0_808_5494)">
<path d="M12.6673 5.33333V4.712C12.6664 3.81619 12.3102 2.95733 11.6768 2.3239C11.0433 1.69046 10.1845 1.33422 9.28865 1.33333H8.66732V0H7.33398V1.33333H6.71265C5.91086 1.33419 5.13551 1.62016 4.52518 2.14012C3.91485 2.66008 3.50932 3.38015 3.38109 4.17162C3.25285 4.96308 3.41026 5.77436 3.82518 6.46044C4.2401 7.14652 4.88549 7.66268 5.64598 7.91667L7.33398 8.48V13.3333H6.71265C6.17036 13.3328 5.65043 13.1171 5.26697 12.7337C4.88351 12.3502 4.66785 11.8303 4.66732 11.288V10.6667H3.33398V11.288C3.33487 12.1838 3.69112 13.0427 4.32455 13.6761C4.95798 14.3095 5.81684 14.6658 6.71265 14.6667H7.33398V16H8.66732V14.6667H9.28865C10.0904 14.6658 10.8658 14.3798 11.4761 13.8599C12.0865 13.3399 12.492 12.6199 12.6202 11.8284C12.7485 11.0369 12.591 10.2256 12.1761 9.53956C11.7612 8.85348 11.1158 8.33732 10.3553 8.08333L8.66732 7.52V2.66667H9.28865C9.83094 2.6672 10.3509 2.88286 10.7343 3.26632C11.1178 3.64978 11.3335 4.16971 11.334 4.712V5.33333H12.6673ZM9.93398 9.34733C10.3948 9.50072 10.786 9.81309 11.0376 10.2285C11.2892 10.644 11.3847 11.1354 11.3071 11.6149C11.2295 12.0943 10.9838 12.5305 10.614 12.8454C10.2441 13.1602 9.77435 13.3332 9.28865 13.3333H8.66732V8.92467L9.93398 9.34733ZM7.33398 7.07533L6.06732 6.65267C5.60648 6.49929 5.21526 6.18691 4.96367 5.77146C4.71209 5.356 4.61656 4.86457 4.69419 4.38512C4.77181 3.90566 5.01752 3.46948 5.38734 3.15463C5.75716 2.83978 6.22696 2.6668 6.71265 2.66667H7.33398V7.07533Z" fill="#656D76"/>
</g>
<defs>
<clipPath id="clip0_808_5494">
<rect width="16" height="16" fill="white"/>
</clipPath>
</defs>
</svg>
