<svg width="20" height="21" viewBox="0 0 20 21" fill="none" xmlns="http://www.w3.org/2000/svg">
<path d="M8.8018 11.6963C9.12072 11.9975 9.55249 12.1667 10.0026 12.1667C10.4527 12.1667 10.8845 11.9975 11.2034 11.6963L16.6693 6.51214C16.5434 6.21375 16.3263 5.95789 16.0459 5.77751C15.7654 5.59713 15.4344 5.50048 15.0956 5.5H4.90966C4.57078 5.50048 4.23982 5.59713 3.95936 5.77751C3.67889 5.95789 3.46177 6.21375 3.33594 6.51214L8.8018 11.6963Z" fill="#C5D31E"/>
<path d="M12.9467 12.1359C12.1645 12.9161 11.1048 13.3543 10 13.3543C8.89521 13.3543 7.83552 12.9161 7.05333 12.1359L0 5.08594V19.6693H20V5.08594L12.9467 12.1359Z" fill="#248F37"/>
</svg>
