<svg width="20" height="20" viewBox="0 0 20 20" fill="none" xmlns="http://www.w3.org/2000/svg">
<path d="M10.0005 20C15.5236 20 20.001 15.5228 20.001 10C20.001 4.47715 15.5236 0 10.0005 0C4.47737 0 0 4.47715 0 10C0 15.5228 4.47737 20 10.0005 20Z" fill="#86BF49"/>
<path d="M4.07581 9.39866C3.79367 9.39866 3.57422 9.17922 3.57422 8.89709C3.57422 8.80305 3.57422 7.9253 4.16986 7.32969C4.48335 7.01621 4.92225 6.82812 5.45519 6.82812C5.95678 6.82812 6.42702 7.01621 6.74052 7.32969C7.30481 7.9253 7.30481 8.7717 7.30481 8.89709C7.30481 9.17922 7.05401 9.39866 6.77187 9.39866C6.48972 9.39866 6.27028 9.14787 6.27028 8.86574C6.27028 8.709 6.20758 8.27013 5.98813 8.0507C5.86273 7.9253 5.67464 7.86261 5.42384 7.86261C5.17304 7.86261 4.98495 7.9253 4.85955 8.0507C4.5774 8.33283 4.5774 8.89709 4.5774 8.89709C4.60875 9.17922 4.38931 9.39866 4.07581 9.39866Z" fill="#0D1117"/>
<path d="M13.2008 9.39866C12.9187 9.39866 12.6992 9.17922 12.6992 8.89709C12.6992 8.80305 12.6992 7.9253 13.2949 7.32969C13.6084 7.01621 14.0472 6.82812 14.5802 6.82812C15.0818 6.82812 15.552 7.01621 15.8655 7.32969C16.4298 7.9253 16.4298 8.7717 16.4298 8.89709C16.4298 9.17922 16.179 9.39866 15.8969 9.39866C15.6147 9.39866 15.3953 9.14787 15.3953 8.86574C15.3953 8.709 15.3326 8.27013 15.1131 8.0507C14.9877 7.9253 14.7996 7.86261 14.5488 7.86261C14.298 7.86261 14.1099 7.9253 13.9845 8.0507C13.7024 8.33283 13.7024 8.89709 13.7024 8.89709C13.7338 9.17922 13.5143 9.39866 13.2008 9.39866Z" fill="#0D1117"/>
<path d="M4.86077 10.9715C4.64132 10.9715 4.48458 11.191 4.57863 11.379C5.01752 12.4135 6.42825 15.0468 9.97074 15.0468C13.5132 15.0468 14.9553 12.4135 15.3942 11.3477C15.4883 11.1596 15.3315 10.9088 15.1121 10.9402L4.86077 10.9715Z" fill="#0D1117"/>
</svg>
