<svg width="20" height="20" viewBox="0 0 20 20" fill="none" xmlns="http://www.w3.org/2000/svg">
<path d="M10.0044 20C15.5275 20 20.0049 15.5228 20.0049 10C20.0049 4.47715 15.5275 0 10.0044 0C4.48127 0 0.00390625 4.47715 0.00390625 10C0.00390625 15.5228 4.48127 20 10.0044 20Z" fill="#E93939"/>
<path d="M4.674 9.61805C4.45455 9.61805 4.23511 9.49266 4.10971 9.30457C3.92161 8.99109 4.04701 8.61492 4.3605 8.42683L5.77123 7.61178L4.32916 6.79673C4.01567 6.60865 3.92162 6.23247 4.07837 5.91899C4.26647 5.60551 4.64266 5.51147 4.95615 5.66821L7.37007 7.01617C7.55816 7.14156 7.68356 7.32965 7.68356 7.58043C7.68356 7.79987 7.55816 8.01931 7.37007 8.1447L4.98749 9.49266C4.89344 9.5867 4.7994 9.61805 4.674 9.61805Z" fill="#0D1117"/>
<path d="M15.3337 9.61711C15.2396 9.61711 15.1142 9.58576 15.0202 9.52307L12.669 8.1751C12.4809 8.04971 12.3555 7.86162 12.3555 7.64219C12.3555 7.42275 12.4809 7.20331 12.669 7.10927L14.9888 5.76131C15.3023 5.57322 15.6785 5.69861 15.8353 5.98074C16.0234 6.29422 15.898 6.6704 15.6158 6.82714L14.2051 7.64219L15.6158 8.45723C15.9293 8.64532 16.0234 9.0215 15.8353 9.30363C15.7726 9.49172 15.5531 9.61711 15.3337 9.61711Z" fill="#0D1117"/>
<path d="M6.43129 14.4802C6.39994 14.4802 6.33724 14.4802 6.27454 14.4489C5.9924 14.3862 5.83564 14.104 5.92968 13.8219C6.24318 12.7874 7.46581 10.8125 10.0051 10.8125C12.5758 10.8125 13.7671 12.7874 14.0806 13.8219C14.1433 14.104 13.9865 14.3862 13.7357 14.4489C13.4536 14.5116 13.1714 14.3548 13.1087 14.104C13.0774 14.01 12.4504 11.847 10.0365 11.847C7.62257 11.847 6.96422 14.0413 6.93287 14.1354C6.83882 14.3235 6.65073 14.4802 6.43129 14.4802Z" fill="#0D1117"/>
</svg>
