<svg width="20" height="20" viewBox="0 0 20 20" fill="none" xmlns="http://www.w3.org/2000/svg">
<path d="M20.0049 10C20.0049 15.5172 15.5219 20 10.0044 20C4.48687 20 0.00390625 15.5172 0.00390625 10C0.00390625 4.48276 4.48687 0 10.0044 0C15.5219 0 20.0049 4.48276 20.0049 10Z" fill="#FEBE02"/>
<path d="M5.45932 10.6272C5.05177 10.6272 4.73828 10.3137 4.73828 9.90617V8.15069C4.73828 7.74317 5.05177 7.42969 5.45932 7.42969C5.86686 7.42969 6.18035 7.74317 6.18035 8.15069V9.90617C6.18035 10.3137 5.83551 10.6272 5.45932 10.6272Z" fill="#0D1117"/>
<path d="M14.5492 10.6272C14.1416 10.6272 13.8281 10.3137 13.8281 9.90617V8.15069C13.8281 7.74317 14.1416 7.42969 14.5492 7.42969C14.9567 7.42969 15.2702 7.74317 15.2702 8.15069V9.90617C15.2702 10.3137 14.9567 10.6272 14.5492 10.6272Z" fill="#0D1117"/>
<path d="M15.7409 13.3231H4.26703C4.01623 13.3231 3.82812 13.135 3.82812 12.8842C3.82812 12.6334 4.01623 12.4453 4.26703 12.4453H15.7409C15.9917 12.4453 16.1798 12.6334 16.1798 12.8842C16.1798 13.135 15.9604 13.3231 15.7409 13.3231Z" fill="#0D1117"/>
</svg>
