<svg width="20" height="20" viewBox="0 0 20 20" fill="none" xmlns="http://www.w3.org/2000/svg">
<path d="M20.0049 10C20.0049 15.5172 15.5219 20 10.0044 20C4.48688 20 0.00390625 15.5172 0.00390625 10C0.00390625 4.48276 4.48688 0 10.0044 0C15.5219 0 20.0049 4.48276 20.0049 10Z" fill="#F17001"/>
<path d="M5.42807 10.0905C5.02052 10.0905 4.70703 9.77699 4.70703 9.36947V6.86163C4.70703 6.45411 5.02052 6.14062 5.42807 6.14062C5.83561 6.14062 6.14911 6.45411 6.14911 6.86163V9.36947C6.18046 9.74564 5.83561 10.0905 5.42807 10.0905Z" fill="#0D1117"/>
<path d="M14.5531 10.0905C14.1455 10.0905 13.832 9.77699 13.832 9.36947V6.86163C13.832 6.45411 14.1455 6.14062 14.5531 6.14062C14.9606 6.14062 15.2741 6.45411 15.2741 6.86163V9.36947C15.2741 9.74564 14.9606 10.0905 14.5531 10.0905Z" fill="#0D1117"/>
<path d="M6.40003 14.4802C6.36868 14.4802 6.30598 14.4802 6.24328 14.4489C5.96114 14.3862 5.80439 14.104 5.89844 13.8219C6.21193 12.7874 7.43457 10.8125 9.97388 10.8125C12.5445 10.8125 13.7358 12.7874 14.0493 13.8219C14.112 14.104 13.9553 14.3862 13.7045 14.4489C13.4223 14.5116 13.1402 14.3548 13.0775 14.104C13.0461 14.01 12.4191 11.847 10.0052 11.847C7.59131 11.847 6.93297 14.0413 6.90162 14.1354C6.83892 14.3235 6.61948 14.4802 6.40003 14.4802Z" fill="#0D1117"/>
</svg>
