<svg width="20" height="20" viewBox="0 0 20 20" fill="none" xmlns="http://www.w3.org/2000/svg">
<path d="M20.001 10C20.001 15.5172 15.518 20 10.0005 20C4.48297 20 0 15.5172 0 10C0 4.48276 4.48297 0 10.0005 0C15.518 0 20.001 4.48276 20.001 10Z" fill="#DDE670"/>
<path d="M5.45541 10.6272C5.04787 10.6272 4.73438 10.3137 4.73438 9.90617V8.15069C4.73438 7.74317 5.04787 7.42969 5.45541 7.42969C5.86295 7.42969 6.17644 7.74317 6.17644 8.15069V9.90617C6.17644 10.3137 5.8316 10.6272 5.45541 10.6272Z" fill="#0D1117"/>
<path d="M14.5453 10.6272C14.1377 10.6272 13.8242 10.3137 13.8242 9.90617V8.15069C13.8242 7.74317 14.1377 7.42969 14.5453 7.42969C14.9528 7.42969 15.2663 7.74317 15.2663 8.15069V9.90617C15.2663 10.3137 14.9528 10.6272 14.5453 10.6272Z" fill="#0D1117"/>
<path d="M15.737 13.3231H4.26312C4.01232 13.3231 3.82422 13.135 3.82422 12.8842C3.82422 12.6334 4.01232 12.4453 4.26312 12.4453H15.737C15.9878 12.4453 16.1759 12.6334 16.1759 12.8842C16.1759 13.135 15.9565 13.3231 15.737 13.3231Z" fill="#0D1117"/>
</svg>
