<svg width="80" height="80" viewBox="0 0 80 80" fill="none" xmlns="http://www.w3.org/2000/svg">
<path d="M43.9274 50.7143V47.8572C43.9281 45.885 45.5267 44.2865 47.4988 44.2858V43.5715C47.5009 42.9654 47.7606 42.3887 48.2131 41.9856V41.3501C48.2027 40.8709 47.9353 40.4343 47.5132 40.2071C44.7416 38.5786 43.2134 35.9714 43.2134 32.8572C43.2138 28.1229 47.052 24.2853 51.7863 24.2858H51.798C52.0335 24.2858 52.2623 24.2928 52.4979 24.3143V23.5715C52.4972 21.5997 50.8992 20.0013 48.9274 20H24.6417C22.6695 20.0007 21.071 21.5993 21.0703 23.5714V56.4285C21.071 58.4007 22.6696 59.9992 24.6417 59.9999H48.9274C50.8996 59.9992 52.4981 58.4006 52.4988 56.4285V52.8571H46.0702C44.8883 52.8537 43.9309 51.8963 43.9274 50.7143ZM28.2131 28.5714H39.6417C40.0362 28.5714 40.356 28.8912 40.356 29.2857C40.356 29.6802 40.0363 30 39.6417 30H28.2131C27.8187 30 27.4988 29.6802 27.4988 29.2857C27.4988 28.8913 27.8187 28.5714 28.2131 28.5714ZM28.2131 31.4286H39.6417C40.0362 31.4286 40.356 31.7484 40.356 32.1429C40.356 32.5373 40.0363 32.8572 39.6417 32.8572H28.2131C27.8187 32.8572 27.4988 32.5374 27.4988 32.1429C27.4988 31.7484 27.8187 31.4286 28.2131 31.4286ZM27.4988 35C27.4999 34.6059 27.8191 34.2868 28.2131 34.2857H39.6417C40.0362 34.2857 40.356 34.6055 40.356 35C40.356 35.3945 40.0363 35.7143 39.6417 35.7143H28.2131C27.8191 35.7132 27.5 35.3941 27.4988 35ZM36.0703 54.2857C32.9144 54.2857 30.356 51.7273 30.356 48.5714C30.356 45.4155 32.9144 42.8571 36.0703 42.8571C39.2263 42.8571 41.7846 45.4155 41.7846 48.5714C41.7804 51.7256 39.2245 54.2816 36.0703 54.2857Z" fill="#248F37"/>
<path d="M36.0709 44.2812C33.7039 44.2812 31.7852 46.2 31.7852 48.567C31.7852 50.9339 33.7039 52.8527 36.0709 52.8527C38.4378 52.8527 40.3566 50.9339 40.3566 48.567C40.3548 46.2008 38.437 44.283 36.0709 44.2812ZM38.0632 47.5739L35.8413 50.431C35.6029 50.7427 35.157 50.802 34.8453 50.5636C34.7955 50.5255 34.7509 50.4809 34.7127 50.431L34.077 49.6167C33.8344 49.3051 33.8904 48.8558 34.202 48.6132C34.5137 48.3706 34.963 48.4266 35.2055 48.7383L35.277 48.8309L36.9341 46.7025C37.1802 46.395 37.6288 46.3452 37.9363 46.5912C38.2363 46.8312 38.2922 47.2658 38.0627 47.5738L38.0632 47.5739Z" fill="#248F37"/>
<path d="M56.0694 45.7065H54.6405V43.5636C54.6407 43.1693 54.3211 42.8495 53.9268 42.8493C53.9266 42.8493 53.9265 42.8493 53.9263 42.8493V41.3412C53.9362 40.3672 54.4609 39.4712 55.3054 38.986C56.8895 38.0632 58.8031 36.3021 58.9208 33.1513C59.0996 29.6004 56.6177 26.4675 53.1202 25.8292C49.2404 25.0947 45.4998 27.6445 44.7654 31.5243C44.6827 31.9611 44.6409 32.4047 44.6406 32.8493C44.6406 36.1622 46.5946 38.0059 48.233 38.9691C49.0933 39.4512 49.6302 40.3564 49.6406 41.3425V42.8488C49.2462 42.8488 48.9263 43.1686 48.9263 43.5631V45.706H47.4977C46.315 45.7078 45.3567 46.6661 45.3548 47.8489V50.706C45.3548 51.1004 45.6746 51.4203 46.0691 51.4203H57.498C57.8924 51.4203 58.2123 51.1005 58.2123 50.706V47.8493C58.2104 46.6667 57.2521 45.7083 56.0694 45.7065ZM53.212 45.7065H50.3548V44.2779H53.212V45.7065Z" fill="#C5D31E"/>
<circle opacity="0.1" cx="40" cy="40" r="39.5" stroke="black"/>
</svg>
