<svg width="80" height="80" viewBox="0 0 80 80" fill="none" xmlns="http://www.w3.org/2000/svg">
<g clip-path="url(#clip0_841_4328)">
<path d="M23.5156 20C21.5771 20 20 21.5771 20 23.5156V37.8125H37.8125V20H23.5156ZM31.6406 30.0781H30.0781V31.6406C30.0781 32.2878 29.5534 32.8125 28.9062 32.8125C28.2591 32.8125 27.7344 32.2878 27.7344 31.6406V30.0781H26.1719C25.5247 30.0781 25 29.5534 25 28.9062C25 28.2591 25.5247 27.7344 26.1719 27.7344H27.7344V26.1719C27.7344 25.5247 28.2591 25 28.9062 25C29.5534 25 30.0781 25.5247 30.0781 26.1719V27.7344H31.6406C32.2878 27.7344 32.8125 28.2591 32.8125 28.9062C32.8125 29.5534 32.2878 30.0781 31.6406 30.0781Z" fill="#248F37"/>
<path d="M57.3308 37.8125H57.9688V23.5156C57.9688 21.5771 56.3916 20 54.4531 20H40.1562V37.3898C42.4755 35.6449 45.3573 34.6094 48.4766 34.6094C51.84 34.6094 54.9272 35.8134 57.3308 37.8125ZM45.1562 28.9062C45.1562 28.2591 45.6809 27.7344 46.3281 27.7344H51.7969C52.4441 27.7344 52.9688 28.2591 52.9688 28.9062C52.9688 29.5534 52.4441 30.0781 51.7969 30.0781H46.3281C45.6809 30.0781 45.1562 29.5534 45.1562 28.9062Z" fill="#248F37"/>
<path d="M37.3898 40.1562H20V54.4531C20 56.3916 21.5771 57.9688 23.5156 57.9688H37.8125V57.3308C35.8134 54.9272 34.6094 51.8399 34.6094 48.4766C34.6094 45.3573 35.6449 42.4755 37.3898 40.1562ZM31.688 50.187C32.1456 50.6447 32.1456 51.3866 31.688 51.8443C31.4592 52.0731 31.1593 52.1875 30.8594 52.1875C30.5595 52.1875 30.2595 52.0731 30.0308 51.8442L28.9062 50.7198L27.7817 51.8443C27.553 52.0731 27.253 52.1875 26.9531 52.1875C26.6532 52.1875 26.3533 52.0731 26.1245 51.8442C25.6669 51.3866 25.6669 50.6446 26.1245 50.187L27.249 49.0625L26.1245 47.938C25.6668 47.4803 25.6668 46.7384 26.1245 46.2807C26.582 45.823 27.3241 45.823 27.7817 46.2807L28.9062 47.4052L30.0308 46.2807C30.4884 45.823 31.2304 45.823 31.688 46.2807C32.1457 46.7384 32.1457 47.4803 31.688 47.938L30.5635 49.0625L31.688 50.187Z" fill="#248F37"/>
<path d="M48.4766 36.9531C42.1225 36.9531 36.9531 42.1225 36.9531 48.4766C36.9531 54.8306 42.1225 60 48.4766 60C54.8306 60 60 54.8306 60 48.4766C60 42.1225 54.8306 36.9531 48.4766 36.9531ZM51.2109 51.6016H45.7422C45.095 51.6016 44.5703 51.0769 44.5703 50.4297C44.5703 49.7825 45.095 49.2578 45.7422 49.2578H51.2109C51.8581 49.2578 52.3828 49.7825 52.3828 50.4297C52.3828 51.0769 51.8581 51.6016 51.2109 51.6016ZM51.2109 47.6953H45.7422C45.095 47.6953 44.5703 47.1706 44.5703 46.5234C44.5703 45.8762 45.095 45.3516 45.7422 45.3516H51.2109C51.8581 45.3516 52.3828 45.8762 52.3828 46.5234C52.3828 47.1706 51.8581 47.6953 51.2109 47.6953Z" fill="#C5D31E"/>
</g>
<circle opacity="0.1" cx="40" cy="40" r="39.5" stroke="black"/>
<defs>
<clipPath id="clip0_841_4328">
<rect width="40" height="40" fill="white" transform="translate(20 20)"/>
</clipPath>
</defs>
</svg>
