<svg width="163" height="41" viewBox="0 0 163 41" fill="none" xmlns="http://www.w3.org/2000/svg">
<path d="M68.6373 20.931C68.6373 22.5696 68.4394 24.0628 68.0436 25.4106C67.6577 26.7584 67.064 27.9123 66.2626 28.8722C65.4611 29.8321 64.4469 30.5739 63.22 31.0975C62.003 31.6211 60.5633 31.8829 58.901 31.8829C57.2388 31.8829 55.7942 31.6211 54.5673 31.0975C53.3502 30.5739 52.341 29.8321 51.5395 28.8722C50.748 27.9123 50.1543 26.7584 49.7585 25.4106C49.3726 24.0531 49.1797 22.5502 49.1797 20.9019C49.1797 19.2535 49.3726 17.7603 49.7585 16.4222C50.1543 15.0744 50.7529 13.9254 51.5544 12.9752C52.3558 12.025 53.3651 11.2929 54.5821 10.779C55.809 10.2554 57.2586 9.99359 58.9307 9.99359C60.593 9.99359 62.0327 10.2554 63.2497 10.779C64.4667 11.2929 65.471 12.0298 66.2626 12.9897C67.064 13.94 67.6577 15.089 68.0436 16.4367C68.4394 17.7748 68.6373 19.2729 68.6373 20.931ZM53.9142 20.931C53.9142 22.046 54.0132 23.0496 54.211 23.9416C54.4089 24.824 54.7107 25.5755 55.1164 26.196C55.532 26.8069 56.0514 27.2771 56.6748 27.6068C57.2981 27.9365 58.0402 28.1013 58.901 28.1013C59.7817 28.1013 60.5336 27.9365 61.157 27.6068C61.7902 27.2771 62.3048 26.8069 62.7005 26.196C63.1062 25.5755 63.4031 24.824 63.591 23.9416C63.7889 23.0496 63.8879 22.046 63.8879 20.931C63.8879 19.8159 63.7889 18.8172 63.591 17.9348C63.4031 17.0428 63.1062 16.2865 62.7005 15.6659C62.3048 15.0453 61.7952 14.5702 61.1718 14.2405C60.5485 13.9109 59.8014 13.746 58.9307 13.746C58.0699 13.746 57.3229 13.9109 56.6896 14.2405C56.0564 14.5702 55.532 15.0453 55.1164 15.6659C54.7107 16.2865 54.4089 17.0428 54.211 17.9348C54.0132 18.8172 53.9142 19.8159 53.9142 20.931Z" fill="white"/>
<path d="M85.0077 25.687C85.0077 26.6372 84.8395 27.4953 84.5031 28.2613C84.1766 29.0176 83.6918 29.6673 83.0486 30.2103C82.4154 30.7436 81.6337 31.1557 80.7036 31.4465C79.7834 31.7374 78.7247 31.8829 77.5275 31.8829C76.4787 31.8829 75.4645 31.7762 74.4849 31.5629C73.5152 31.3496 72.6148 31.0296 71.7837 30.603V26.4142C72.2586 26.6372 72.7385 26.8554 73.2234 27.0687C73.7082 27.2723 74.198 27.4565 74.6927 27.6214C75.1973 27.7862 75.697 27.9171 76.1917 28.0141C76.6963 28.111 77.196 28.1595 77.6907 28.1595C78.1954 28.1595 78.6258 28.1062 78.982 27.9995C79.3481 27.8832 79.64 27.728 79.8576 27.5341C80.0852 27.3305 80.2485 27.0929 80.3474 26.8214C80.4562 26.5402 80.5107 26.2348 80.5107 25.9051C80.5107 25.5076 80.4216 25.1585 80.2435 24.8579C80.0753 24.5477 79.8329 24.2616 79.5163 23.9998C79.2095 23.7283 78.8335 23.4665 78.3883 23.2144C77.9529 22.9623 77.4632 22.6957 76.919 22.4145C76.4638 22.1818 75.9542 21.9006 75.3903 21.5709C74.8263 21.2412 74.292 20.834 73.7873 20.3492C73.2926 19.8547 72.8771 19.2632 72.5406 18.5748C72.2042 17.8766 72.036 17.0428 72.036 16.0731C72.036 15.1229 72.1943 14.2745 72.511 13.5279C72.8375 12.7716 73.2976 12.1365 73.8912 11.6226C74.4849 11.099 75.2023 10.7014 76.0433 10.4299C76.8942 10.1584 77.8441 10.0227 78.8929 10.0227C79.4173 10.0227 79.9269 10.0566 80.4216 10.1245C80.9262 10.1924 81.421 10.2893 81.9058 10.4154C82.4005 10.5414 82.8952 10.6966 83.39 10.8808C83.8847 11.065 84.3943 11.2783 84.9187 11.5207L83.4345 15.0259C82.9892 14.8223 82.5737 14.6429 82.1878 14.4878C81.8019 14.3327 81.4259 14.2018 81.0598 14.0951C80.6937 13.9884 80.3326 13.9109 79.9764 13.8624C79.6301 13.8042 79.2788 13.7751 78.9226 13.7751C78.1508 13.7751 77.5572 13.9787 77.1416 14.386C76.7359 14.7835 76.5331 15.3168 76.5331 15.9859C76.5331 16.3446 76.5924 16.6646 76.7112 16.9458C76.8398 17.2173 77.0377 17.4742 77.3048 17.7167C77.5819 17.9591 77.9331 18.2063 78.3586 18.4584C78.794 18.7105 79.3184 18.9966 79.9318 19.3165C80.6739 19.7044 81.3566 20.1019 81.98 20.5092C82.6034 20.9067 83.1377 21.3527 83.5829 21.8473C84.0381 22.3321 84.3893 22.8847 84.6367 23.5053C84.884 24.1259 85.0077 24.8531 85.0077 25.687Z" fill="white"/>
<path d="M88.0651 29.5121C88.0651 29.0564 88.1294 28.6734 88.2581 28.3631C88.3966 28.0432 88.5846 27.7862 88.8221 27.5923C89.0595 27.3984 89.3366 27.2578 89.6532 27.1705C89.9698 27.0832 90.3112 27.0396 90.6773 27.0396C91.0236 27.0396 91.3501 27.0832 91.6568 27.1705C91.9735 27.2578 92.2505 27.3984 92.488 27.5923C92.7254 27.7862 92.9134 28.0432 93.052 28.3631C93.1905 28.6734 93.2598 29.0564 93.2598 29.5121C93.2598 29.9485 93.1905 30.3218 93.052 30.6321C92.9134 30.9423 92.7254 31.1993 92.488 31.4029C92.2505 31.6065 91.9735 31.752 91.6568 31.8392C91.3501 31.9362 91.0236 31.9847 90.6773 31.9847C90.3112 31.9847 89.9698 31.9362 89.6532 31.8392C89.3366 31.752 89.0595 31.6065 88.8221 31.4029C88.5846 31.1993 88.3966 30.9423 88.2581 30.6321C88.1294 30.3218 88.0651 29.9485 88.0651 29.5121Z" fill="white"/>
<path d="M106.024 13.7751C105.143 13.7751 104.361 13.9448 103.679 14.2842C103.006 14.6138 102.437 15.0938 101.972 15.7241C101.517 16.3446 101.17 17.1058 100.933 18.0075C100.695 18.8996 100.577 19.9032 100.577 21.0182C100.577 22.1527 100.681 23.1611 100.888 24.0435C101.106 24.9258 101.433 25.6724 101.868 26.2833C102.313 26.8845 102.877 27.345 103.56 27.665C104.253 27.9753 105.074 28.1304 106.024 28.1304C106.904 28.1304 107.785 28.0335 108.666 27.8395C109.556 27.6456 110.521 27.3693 111.56 27.0105V30.792C111.085 30.986 110.615 31.1508 110.15 31.2865C109.685 31.4223 109.21 31.5338 108.725 31.6211C108.24 31.7083 107.74 31.7714 107.226 31.8101C106.721 31.8586 106.177 31.8829 105.593 31.8829C103.921 31.8829 102.472 31.6211 101.245 31.0975C100.018 30.5739 99.0035 29.837 98.2021 28.8867C97.4006 27.9365 96.8069 26.7923 96.421 25.4543C96.0352 24.1162 95.8422 22.6278 95.8422 20.9891C95.8422 19.3796 96.0648 17.9057 96.5101 16.5676C96.9553 15.2199 97.6084 14.0612 98.4692 13.0915C99.33 12.1219 100.394 11.3705 101.66 10.8372C102.927 10.2942 104.381 10.0227 106.024 10.0227C107.102 10.0227 108.181 10.1584 109.259 10.4299C110.348 10.6917 111.386 11.0553 112.376 11.5207L110.892 15.1859C110.08 14.8078 109.264 14.4781 108.443 14.1969C107.622 13.9157 106.815 13.7751 106.024 13.7751Z" fill="white"/>
<path d="M125.466 31.592L124.591 29.3812H124.457C124.131 29.8176 123.804 30.1957 123.478 30.5157C123.151 30.826 122.795 31.0829 122.409 31.2865C122.023 31.4902 121.588 31.6405 121.103 31.7374C120.628 31.8344 120.074 31.8829 119.441 31.8829C118.768 31.8829 118.144 31.7811 117.571 31.5774C116.997 31.3641 116.497 31.049 116.072 30.6321C115.656 30.2054 115.329 29.6721 115.092 29.0322C114.855 28.3825 114.736 27.6165 114.736 26.7342C114.736 25.0082 115.3 23.738 116.428 22.9235C117.556 22.0994 119.243 21.6436 121.489 21.5564L124.131 21.4691V20.2474C124.131 19.5783 123.933 19.0838 123.537 18.7638C123.141 18.4439 122.587 18.2839 121.875 18.2839C121.162 18.2839 120.465 18.3857 119.782 18.5893C119.109 18.7929 118.431 19.0644 117.749 19.4038L116.279 16.4658C117.11 16.0101 118.031 15.6513 119.04 15.3895C120.049 15.1278 121.108 14.9969 122.216 14.9969C124.284 14.9969 125.867 15.472 126.965 16.4222C128.074 17.3724 128.628 18.8172 128.628 20.7564V31.592H125.466ZM124.131 24.058L122.632 24.1162C122.028 24.1356 121.518 24.2131 121.103 24.3489C120.687 24.4846 120.351 24.6689 120.094 24.9016C119.846 25.1246 119.663 25.3961 119.545 25.7161C119.436 26.0263 119.381 26.3754 119.381 26.7632C119.381 27.442 119.549 27.9268 119.886 28.2177C120.222 28.4989 120.663 28.6395 121.207 28.6395C121.622 28.6395 122.008 28.5716 122.364 28.4359C122.721 28.2904 123.027 28.0819 123.285 27.8104C123.552 27.5293 123.76 27.1899 123.908 26.7923C124.056 26.3851 124.131 25.9197 124.131 25.3961V24.058Z" fill="white"/>
<path d="M144.345 26.7632C144.345 27.6165 144.187 28.3631 143.87 29.0031C143.554 29.643 143.103 30.1763 142.52 30.603C141.936 31.0296 141.228 31.3496 140.397 31.5629C139.566 31.7762 138.636 31.8829 137.607 31.8829C137.063 31.8829 136.558 31.8635 136.093 31.8247C135.628 31.7956 135.188 31.7423 134.772 31.6647C134.357 31.5871 133.956 31.4902 133.57 31.3738C133.184 31.2575 132.793 31.112 132.397 30.9375V27.2723C132.813 27.4759 133.248 27.6602 133.704 27.825C134.169 27.9898 134.629 28.1353 135.084 28.2613C135.539 28.3777 135.979 28.4698 136.405 28.5377C136.84 28.6055 137.241 28.6395 137.607 28.6395C138.013 28.6395 138.359 28.6055 138.646 28.5377C138.933 28.4601 139.165 28.3583 139.343 28.2322C139.531 28.0965 139.665 27.9413 139.744 27.7668C139.833 27.5826 139.878 27.3887 139.878 27.185C139.878 26.9814 139.843 26.802 139.774 26.6469C139.714 26.4821 139.571 26.3124 139.343 26.1378C139.116 25.9536 138.779 25.75 138.334 25.527C137.899 25.2943 137.31 25.0131 136.568 24.6834C135.846 24.3634 135.217 24.0483 134.683 23.738C134.159 23.418 133.723 23.0641 133.377 22.6763C133.041 22.2884 132.788 21.8473 132.62 21.3527C132.452 20.8485 132.368 20.2522 132.368 19.5638C132.368 18.8075 132.516 18.1481 132.813 17.5857C133.11 17.0137 133.53 16.5386 134.075 16.1604C134.619 15.7822 135.272 15.5011 136.034 15.3168C136.806 15.1229 137.661 15.0259 138.601 15.0259C139.591 15.0259 140.531 15.1374 141.421 15.3605C142.312 15.5835 143.227 15.918 144.167 16.364L142.802 19.5056C142.05 19.1565 141.332 18.8705 140.65 18.6475C139.967 18.4245 139.284 18.313 138.601 18.313C137.988 18.313 137.543 18.4196 137.266 18.6329C136.998 18.8463 136.865 19.1371 136.865 19.5056C136.865 19.6995 136.9 19.8741 136.969 20.0292C137.038 20.1746 137.177 20.3298 137.384 20.4946C137.592 20.6498 137.884 20.8243 138.26 21.0182C138.636 21.2025 139.126 21.4303 139.729 21.7018C140.432 22.0024 141.065 22.303 141.629 22.6036C142.193 22.8944 142.678 23.229 143.084 23.6071C143.489 23.9853 143.801 24.4265 144.019 24.9307C144.236 25.4349 144.345 26.0457 144.345 26.7632Z" fill="white"/>
<path d="M162.319 31.592H157.792V22.0945C157.792 20.9213 157.604 20.0437 157.228 19.462C156.862 18.8705 156.293 18.5748 155.521 18.5748C154.937 18.5748 154.447 18.6911 154.052 18.9238C153.656 19.1565 153.339 19.5008 153.102 19.9565C152.864 20.4122 152.696 20.9746 152.597 21.6436C152.498 22.3127 152.449 23.0787 152.449 23.9416V31.592H147.922V8.96094H152.449V13.5715C152.449 13.9787 152.439 14.4102 152.419 14.866C152.399 15.312 152.375 15.7241 152.345 16.1022C152.305 16.5483 152.271 16.9846 152.241 17.4112H152.478C152.963 16.5676 153.582 15.9616 154.334 15.5932C155.086 15.215 155.937 15.0259 156.886 15.0259C157.708 15.0259 158.45 15.1423 159.113 15.375C159.786 15.598 160.359 15.9519 160.834 16.4367C161.309 16.9216 161.675 17.5421 161.933 18.2984C162.19 19.045 162.319 19.9419 162.319 20.9891V31.592Z" fill="white"/>
<path fill-rule="evenodd" clip-rule="evenodd" d="M19.307 39.3636C29.9699 39.3636 38.6139 30.8928 38.6139 20.4435C38.6139 9.99425 29.9699 1.52344 19.307 1.52344C8.64403 1.52344 0 9.99425 0 20.4435C0 30.8928 8.64403 39.3636 19.307 39.3636ZM19.3054 33.356C26.5847 33.356 32.4858 27.5732 32.4858 20.4397C32.4858 13.3062 26.5847 7.52344 19.3054 7.52344C12.0261 7.52344 6.125 13.3062 6.125 20.4397C6.125 27.5732 12.0261 33.356 19.3054 33.356Z" fill="white"/>
<path fill-rule="evenodd" clip-rule="evenodd" d="M22.2578 0.201029V3.83561C23.3571 4.01459 24.4062 4.28978 25.405 4.6612C27.3327 5.37864 29.1041 6.407 30.718 7.74626L27.1308 13.1689C25.7257 12.1718 24.3512 11.3852 23.0061 10.8079C21.6609 10.2318 20.3158 9.94309 18.9707 9.94309C17.6256 9.94309 16.6167 10.2161 15.9442 10.761C15.2716 11.3064 14.9353 11.9842 14.9353 12.7942V12.888C14.9353 13.4184 15.0328 13.8779 15.2278 14.267C15.4227 14.6573 15.774 15.0079 16.2839 15.3188C16.7932 15.6309 17.4906 15.9268 18.3743 16.207C19.2585 16.4873 20.3747 16.815 21.7238 17.1885C23.3123 17.6251 24.7278 18.1164 25.972 18.6613C27.2156 19.2067 28.2643 19.861 29.1191 20.6247C29.9734 21.3885 30.6177 22.2845 31.052 23.3129C31.4863 24.3413 31.7044 25.5729 31.7044 27.006V27.0998C31.7044 28.7205 31.4217 30.1614 30.8582 31.4237H30.8588C30.2941 32.686 29.5073 33.7456 28.4979 34.6026C27.4879 35.4601 26.2829 36.1144 24.883 36.566C24.0601 36.8314 23.1851 37.0189 22.2576 37.1285V40.799C21.2933 40.9315 20.3082 41 19.3067 41C18.3034 41 17.3165 40.9312 16.3506 40.7983V36.8606C15.287 36.6481 14.2327 36.3472 13.1876 35.9581C10.8855 35.1011 8.79344 33.7841 6.91016 32.0082L10.9905 26.9127C12.425 28.1281 13.8971 29.0945 15.4072 29.8108C16.9161 30.5282 18.5681 30.886 20.3614 30.886C21.7959 30.886 22.9092 30.6136 23.7017 30.0682C24.4931 29.5233 24.8899 28.7674 24.8899 27.801V27.7072C24.8899 27.2399 24.8074 26.8267 24.6425 26.4683C24.4769 26.1105 24.1626 25.7749 23.6982 25.4634C23.2339 25.1525 22.589 24.8404 21.7653 24.5283C20.9405 24.2174 19.8694 23.8896 18.5514 23.5462C16.9622 23.1415 15.5242 22.6893 14.2351 22.1907C12.9459 21.6928 11.8523 21.077 10.9536 20.3439C10.0544 19.612 9.35756 18.7003 8.86324 17.6094C8.36833 16.5191 8.12146 15.163 8.12146 13.5423V13.4485C8.12146 11.9529 8.38852 10.6052 8.92265 9.40486C9.45735 8.20571 10.2066 7.16894 11.1722 6.29634C12.1378 5.42435 13.2903 4.75381 14.6302 4.28594C15.1803 4.09442 15.7539 3.9421 16.3508 3.8291V0.201735C17.3167 0.0687606 18.3036 0 19.3069 0C20.3084 0 21.2936 0.0685171 22.2578 0.201029ZM40.3625 20.8805C40.3635 20.7988 40.364 20.717 40.364 20.6352C40.364 20.5842 40.3638 20.5334 40.3634 20.4825C40.3637 20.4433 40.3638 20.4041 40.3638 20.3648C40.3638 20.283 40.3633 20.2012 40.3623 20.1195V20.6101C40.3624 20.6034 40.3625 20.5967 40.3625 20.59V20.8805Z" fill="#248F37"/>
</svg>
