<svg width="163" height="42" viewBox="0 0 163 42" fill="none" xmlns="http://www.w3.org/2000/svg">
<path d="M68.6373 21.3633C68.6373 23.0354 68.4394 24.5592 68.0437 25.9345C67.6578 27.3099 67.0641 28.4873 66.2626 29.4669C65.4612 30.4465 64.447 31.2034 63.2201 31.7377C62.003 32.272 60.5634 32.5392 58.9011 32.5392C57.2388 32.5392 55.7942 32.272 54.5673 31.7377C53.3502 31.2034 52.341 30.4465 51.5395 29.4669C50.748 28.4873 50.1543 27.3099 49.7585 25.9345C49.3726 24.5493 49.1797 23.0157 49.1797 21.3336C49.1797 19.6515 49.3726 18.1277 49.7585 16.7623C50.1543 15.387 50.7529 14.2144 51.5544 13.2448C52.3558 12.2751 53.3651 11.5281 54.5821 11.0037C55.809 10.4694 57.2586 10.2022 58.9308 10.2022C60.5931 10.2022 62.0327 10.4694 63.2497 11.0037C64.4668 11.5281 65.4711 12.2801 66.2626 13.2596C67.0641 14.2293 67.6578 15.4018 68.0437 16.7771C68.4394 18.1426 68.6373 19.6713 68.6373 21.3633ZM53.9142 21.3633C53.9142 22.5011 54.0132 23.5252 54.2111 24.4355C54.409 25.3359 54.7107 26.1028 55.1164 26.736C55.532 27.3594 56.0515 27.8393 56.6748 28.1757C57.2982 28.5121 58.0403 28.6803 58.9011 28.6803C59.7817 28.6803 60.5337 28.5121 61.157 28.1757C61.7903 27.8393 62.3048 27.3594 62.7006 26.736C63.1063 26.1028 63.4031 25.3359 63.5911 24.4355C63.789 23.5252 63.8879 22.5011 63.8879 21.3633C63.8879 20.2254 63.789 19.2063 63.5911 18.3058C63.4031 17.3955 63.1063 16.6238 62.7006 15.9905C62.3048 15.3573 61.7952 14.8724 61.1719 14.536C60.5485 14.1996 59.8015 14.0314 58.9308 14.0314C58.0699 14.0314 57.3229 14.1996 56.6897 14.536C56.0564 14.8724 55.532 15.3573 55.1164 15.9905C54.7107 16.6238 54.409 17.3955 54.2111 18.3058C54.0132 19.2063 53.9142 20.2254 53.9142 21.3633Z" fill="#0D1117"/>
<path d="M85.0079 26.2165C85.0079 27.1862 84.8397 28.0619 84.5033 28.8435C84.1767 29.6153 83.6919 30.2783 83.0488 30.8324C82.4155 31.3766 81.6338 31.7971 80.7037 32.0939C79.7835 32.3907 78.7248 32.5392 77.5276 32.5392C76.4788 32.5392 75.4646 32.4303 74.485 32.2126C73.5153 31.995 72.6149 31.6684 71.7838 31.2331V26.9586C72.2587 27.1862 72.7386 27.4088 73.2235 27.6265C73.7083 27.8343 74.1981 28.0223 74.6928 28.1905C75.1974 28.3587 75.6971 28.4923 76.1918 28.5912C76.6964 28.6902 77.1961 28.7397 77.6909 28.7397C78.1955 28.7397 78.6259 28.6852 78.9821 28.5764C79.3482 28.4577 79.6401 28.2993 79.8578 28.1015C80.0853 27.8937 80.2486 27.6513 80.3475 27.3742C80.4564 27.0873 80.5108 26.7756 80.5108 26.4392C80.5108 26.0335 80.4217 25.6773 80.2436 25.3706C80.0754 25.0539 79.833 24.762 79.5164 24.4949C79.2097 24.2178 78.8337 23.9507 78.3884 23.6934C77.9531 23.4362 77.4633 23.1641 76.9191 22.8771C76.4639 22.6397 75.9544 22.3527 75.3904 22.0163C74.8264 21.6799 74.2921 21.2643 73.7874 20.7696C73.2927 20.265 72.8771 19.6614 72.5407 18.9589C72.2043 18.2465 72.0361 17.3955 72.0361 16.4061C72.0361 15.4364 72.1944 14.5707 72.5111 13.8088C72.8376 13.037 73.2977 12.3889 73.8913 11.8645C74.485 11.3302 75.2024 10.9245 76.0434 10.6475C76.8943 10.3704 77.8442 10.2319 78.893 10.2319C79.4174 10.2319 79.927 10.2665 80.4217 10.3358C80.9264 10.405 81.4211 10.504 81.9059 10.6326C82.4007 10.7613 82.8954 10.9196 83.3901 11.1076C83.8848 11.2956 84.3944 11.5132 84.9188 11.7606L83.4346 15.3375C82.9894 15.1297 82.5738 14.9466 82.1879 14.7883C81.802 14.63 81.426 14.4964 81.0599 14.3876C80.6938 14.2788 80.3327 14.1996 79.9765 14.1501C79.6302 14.0908 79.2789 14.0611 78.9227 14.0611C78.1509 14.0611 77.5573 14.2689 77.1417 14.6844C76.736 15.0901 76.5332 15.6343 76.5332 16.317C76.5332 16.6831 76.5926 17.0097 76.7113 17.2966C76.8399 17.5737 77.0378 17.8359 77.305 18.0832C77.582 18.3306 77.9333 18.5829 78.3587 18.8402C78.7941 19.0974 79.3185 19.3893 79.932 19.7158C80.6741 20.1116 81.3568 20.5173 81.9801 20.9329C82.6035 21.3385 83.1378 21.7937 83.5831 22.2983C84.0382 22.793 84.3895 23.357 84.6368 23.9903C84.8842 24.6235 85.0079 25.3656 85.0079 26.2165Z" fill="#0D1117"/>
<path d="M88.0653 30.1199C88.0653 29.6549 88.1296 29.2641 88.2582 28.9474C88.3968 28.6209 88.5848 28.3587 88.8222 28.1608C89.0597 27.9629 89.3367 27.8195 89.6534 27.7304C89.97 27.6414 90.3114 27.5968 90.6775 27.5968C91.0238 27.5968 91.3503 27.6414 91.657 27.7304C91.9736 27.8195 92.2507 27.9629 92.4882 28.1608C92.7256 28.3587 92.9136 28.6209 93.0521 28.9474C93.1907 29.2641 93.2599 29.6549 93.2599 30.1199C93.2599 30.5652 93.1907 30.9461 93.0521 31.2628C92.9136 31.5794 92.7256 31.8416 92.4882 32.0494C92.2507 32.2572 91.9736 32.4056 91.657 32.4946C91.3503 32.5936 91.0238 32.6431 90.6775 32.6431C90.3114 32.6431 89.97 32.5936 89.6534 32.4946C89.3367 32.4056 89.0597 32.2572 88.8222 32.0494C88.5848 31.8416 88.3968 31.5794 88.2582 31.2628C88.1296 30.9461 88.0653 30.5652 88.0653 30.1199Z" fill="#0D1117"/>
<path d="M106.024 14.0611C105.143 14.0611 104.362 14.2342 103.679 14.5805C103.006 14.917 102.437 15.4067 101.972 16.0499C101.517 16.6831 101.171 17.4599 100.933 18.3801C100.696 19.2904 100.577 20.3144 100.577 21.4523C100.577 22.61 100.681 23.639 100.889 24.5394C101.106 25.4398 101.433 26.2017 101.868 26.8251C102.313 27.4385 102.877 27.9085 103.56 28.235C104.253 28.5517 105.074 28.71 106.024 28.71C106.905 28.71 107.785 28.611 108.666 28.4131C109.556 28.2152 110.521 27.9332 111.56 27.5672V31.426C111.085 31.6239 110.615 31.7921 110.15 31.9306C109.685 32.0692 109.21 32.183 108.725 32.272C108.24 32.3611 107.741 32.4254 107.226 32.465C106.721 32.5144 106.177 32.5392 105.593 32.5392C103.921 32.5392 102.472 32.272 101.245 31.7377C100.018 31.2034 99.0037 30.4514 98.2023 29.4817C97.4008 28.5121 96.8071 27.3445 96.4212 25.9791C96.0354 24.6136 95.8424 23.0948 95.8424 21.4226C95.8424 19.7801 96.065 18.2762 96.5103 16.9107C96.9555 15.5354 97.6086 14.353 98.4694 13.3635C99.3302 12.3741 100.394 11.6072 101.66 11.063C102.927 10.5089 104.381 10.2319 106.024 10.2319C107.102 10.2319 108.181 10.3704 109.259 10.6475C110.348 10.9146 111.387 11.2857 112.376 11.7606L110.892 15.5007C110.081 15.1149 109.264 14.7784 108.443 14.4915C107.622 14.2046 106.815 14.0611 106.024 14.0611Z" fill="#0D1117"/>
<path d="M125.467 32.2423L124.591 29.9864H124.457C124.131 30.4316 123.804 30.8175 123.478 31.144C123.151 31.4607 122.795 31.7229 122.409 31.9306C122.023 32.1384 121.588 32.2918 121.103 32.3907C120.628 32.4897 120.074 32.5392 119.441 32.5392C118.768 32.5392 118.145 32.4353 117.571 32.2275C116.997 32.0098 116.497 31.6882 116.072 31.2628C115.656 30.8274 115.33 30.2832 115.092 29.6302C114.855 28.9672 114.736 28.1856 114.736 27.2852C114.736 25.5239 115.3 24.2277 116.428 23.3966C117.556 22.5556 119.243 22.0905 121.489 22.0015L124.131 21.9124V20.6657C124.131 19.983 123.933 19.4784 123.537 19.1518C123.141 18.8253 122.587 18.6621 121.875 18.6621C121.163 18.6621 120.465 18.7659 119.782 18.9737C119.109 19.1815 118.432 19.4586 117.749 19.8049L116.28 16.8068C117.111 16.3418 118.031 15.9757 119.04 15.7085C120.049 15.4414 121.108 15.3078 122.216 15.3078C124.284 15.3078 125.867 15.7926 126.966 16.7623C128.074 17.732 128.628 19.2063 128.628 21.1852V32.2423H125.467ZM124.131 24.5543L122.632 24.6136C122.028 24.6334 121.519 24.7126 121.103 24.8511C120.688 24.9896 120.351 25.1776 120.094 25.4151C119.847 25.6427 119.664 25.9197 119.545 26.2462C119.436 26.5629 119.382 26.9191 119.382 27.3148C119.382 28.0075 119.55 28.5022 119.886 28.799C120.223 29.086 120.663 29.2294 121.207 29.2294C121.623 29.2294 122.009 29.1602 122.365 29.0217C122.721 28.8732 123.028 28.6605 123.285 28.3835C123.552 28.0965 123.76 27.7502 123.908 27.3445C124.057 26.929 124.131 26.454 124.131 25.9197V24.5543Z" fill="#0D1117"/>
<path d="M144.346 27.3148C144.346 28.1856 144.187 28.9474 143.871 29.6005C143.554 30.2535 143.104 30.7977 142.52 31.2331C141.936 31.6684 141.229 31.995 140.398 32.2126C139.566 32.4303 138.636 32.5392 137.607 32.5392C137.063 32.5392 136.559 32.5194 136.093 32.4798C135.628 32.4501 135.188 32.3957 134.773 32.3165C134.357 32.2374 133.956 32.1384 133.57 32.0197C133.184 31.901 132.794 31.7526 132.398 31.5744V27.8343C132.813 28.0421 133.249 28.2301 133.704 28.3983C134.169 28.5665 134.629 28.7149 135.084 28.8435C135.539 28.9623 135.98 29.0563 136.405 29.1255C136.841 29.1948 137.241 29.2294 137.607 29.2294C138.013 29.2294 138.359 29.1948 138.646 29.1255C138.933 29.0464 139.166 28.9425 139.344 28.8139C139.532 28.6753 139.665 28.517 139.745 28.3389C139.834 28.1509 139.878 27.953 139.878 27.7453C139.878 27.5375 139.843 27.3544 139.774 27.1961C139.715 27.0279 139.571 26.8547 139.344 26.6766C139.116 26.4886 138.78 26.2809 138.335 26.0533C137.899 25.8158 137.31 25.5289 136.568 25.1925C135.846 24.8659 135.218 24.5444 134.683 24.2277C134.159 23.9012 133.724 23.5401 133.377 23.1443C133.041 22.7485 132.789 22.2983 132.62 21.7937C132.452 21.2792 132.368 20.6706 132.368 19.9681C132.368 19.1964 132.517 18.5235 132.813 17.9496C133.11 17.3659 133.531 16.881 134.075 16.4951C134.619 16.1093 135.272 15.8223 136.034 15.6343C136.806 15.4364 137.662 15.3375 138.602 15.3375C139.591 15.3375 140.531 15.4513 141.422 15.6788C142.312 15.9064 143.227 16.2478 144.167 16.7029L142.802 19.9088C142.05 19.5526 141.333 19.2607 140.65 19.0331C139.967 18.8055 139.284 18.6917 138.602 18.6917C137.988 18.6917 137.543 18.8006 137.266 19.0183C136.999 19.2359 136.865 19.5328 136.865 19.9088C136.865 20.1067 136.9 20.2848 136.969 20.4431C137.038 20.5915 137.177 20.7498 137.385 20.918C137.592 21.0763 137.884 21.2544 138.26 21.4523C138.636 21.6403 139.126 21.8728 139.73 22.1499C140.432 22.4566 141.065 22.7633 141.629 23.0701C142.193 23.3669 142.678 23.7083 143.084 24.0942C143.49 24.4801 143.801 24.9303 144.019 25.4448C144.237 25.9593 144.346 26.5826 144.346 27.3148Z" fill="#0D1117"/>
<path d="M162.319 32.2423H157.792V22.5506C157.792 21.3534 157.604 20.4579 157.228 19.8642C156.862 19.2607 156.293 18.9589 155.521 18.9589C154.938 18.9589 154.448 19.0776 154.052 19.3151C153.656 19.5526 153.34 19.9038 153.102 20.3689C152.865 20.8339 152.697 21.4078 152.598 22.0905C152.499 22.7732 152.449 23.5549 152.449 24.4355V32.2423H147.922V9.14844H152.449V13.8533C152.449 14.2689 152.439 14.7092 152.419 15.1742C152.4 15.6294 152.375 16.0499 152.345 16.4358C152.306 16.8909 152.271 17.3362 152.241 17.7715H152.479C152.964 16.9107 153.582 16.2923 154.334 15.9163C155.086 15.5304 155.937 15.3375 156.887 15.3375C157.708 15.3375 158.45 15.4562 159.113 15.6937C159.786 15.9213 160.36 16.2824 160.835 16.7771C161.31 17.2719 161.676 17.9051 161.933 18.6769C162.19 19.4388 162.319 20.354 162.319 21.4226V32.2423Z" fill="#0D1117"/>
<path fill-rule="evenodd" clip-rule="evenodd" d="M19.3071 40.1688C29.97 40.1688 38.6141 31.5247 38.6141 20.8617C38.6141 10.1987 29.97 1.55469 19.3071 1.55469C8.64406 1.55469 0 10.1987 0 20.8617C0 31.5247 8.64406 40.1688 19.3071 40.1688ZM19.3075 34.0442C26.5868 34.0442 32.4879 28.1431 32.4879 20.8638C32.4879 13.5844 26.5868 7.68334 19.3075 7.68334C12.0281 7.68334 6.12702 13.5844 6.12702 20.8638C6.12702 28.1431 12.0281 34.0442 19.3075 34.0442Z" fill="#0D1117"/>
<path fill-rule="evenodd" clip-rule="evenodd" d="M22.2591 0.205273V3.9132C23.358 4.09584 24.4067 4.3766 25.4051 4.75547C27.3328 5.48758 29.1042 6.53697 30.7181 7.90363L27.1309 13.4371C25.7258 12.4197 24.3513 11.617 23.0061 11.0279C21.661 10.44 20.3159 10.1454 18.9707 10.1454C17.6256 10.1454 16.6168 10.424 15.9442 10.98C15.2716 11.5366 14.9354 12.2282 14.9354 13.0548V13.1506C14.9354 13.6918 15.0328 14.1607 15.2278 14.5577C15.4228 14.956 15.774 15.3138 16.2839 15.631C16.7933 15.9495 17.4906 16.2515 18.3743 16.5374C19.2586 16.8234 20.3747 17.1579 21.7239 17.539C23.3124 17.9845 24.7279 18.4859 25.9721 19.0418C27.2157 19.5985 28.2644 20.2661 29.1192 21.0455C29.9735 21.8249 30.6178 22.7393 31.0521 23.7886C31.4864 24.838 31.7045 26.0948 31.7045 27.5572V27.653C31.7045 29.3068 31.4218 30.7772 30.8583 32.0653H30.8589C30.2942 33.3534 29.5074 34.4347 28.498 35.3092C27.488 36.1843 26.283 36.852 24.8831 37.3128C24.0606 37.5835 23.186 37.7748 22.2591 37.8866V41.6424C21.2946 41.7777 20.3091 41.8476 19.3072 41.8476C18.3049 41.8476 17.319 41.7776 16.354 41.6422V37.6141C15.2893 37.3972 14.2338 37.0899 13.1876 36.6924C10.8856 35.8179 8.79345 34.474 6.91016 32.6618L10.9905 27.4621C12.4251 28.7023 13.8971 29.6885 15.4072 30.4194C16.9161 31.1515 18.5681 31.5167 20.3614 31.5167C21.796 31.5167 22.9092 31.2387 23.7018 30.6821C24.4932 30.1261 24.89 29.3547 24.89 28.3685V28.2728C24.89 27.7959 24.8075 27.3743 24.6425 27.0086C24.477 26.6435 24.1626 26.301 23.6983 25.9831C23.234 25.6659 22.5891 25.3474 21.7654 25.0289C20.9406 24.7116 19.8694 24.3772 18.5514 24.0267C16.9623 23.6137 15.5243 23.1523 14.2351 22.6435C12.9459 22.1354 11.8523 21.507 10.9536 20.7589C10.0544 20.0121 9.35757 19.0817 8.86325 17.9685C8.36834 16.8559 8.12146 15.4721 8.12146 13.8182V13.7225C8.12146 12.1963 8.38853 10.821 8.92266 9.59615C9.45736 8.37248 10.2066 7.3145 11.1722 6.42405C12.1378 5.53422 13.2903 4.84998 14.6302 4.37254C15.1813 4.17676 15.756 4.02112 16.354 3.90575V0.205459C17.319 0.0700284 18.3049 0 19.3072 0C20.3091 0 21.2946 0.0699643 22.2591 0.205273ZM40.3639 21.2049L40.3643 21.1366L40.3644 21.0572C40.3644 21.0127 40.3643 20.9682 40.364 20.9238C40.3643 20.8794 40.3644 20.8349 40.3644 20.7904C40.3644 20.7412 40.3642 20.6919 40.3639 20.6427V20.9095V20.9382V21.2049Z" fill="#248F37"/>
</svg>
