<svg width="873" height="33" viewBox="0 0 873 33" fill="none" xmlns="http://www.w3.org/2000/svg">
<path d="M5.17773 14.8096C4.94987 14.8096 4.74316 14.7689 4.55762 14.6875C4.37207 14.6061 4.21094 14.4889 4.07422 14.3359C3.9375 14.1862 3.82357 14.0023 3.73242 13.7842C3.64453 13.5693 3.58105 13.3252 3.54199 13.0518L2.41895 13.0518L2.41895 12.3779L3.49805 12.3779C3.49805 12.2152 3.50456 12.0508 3.51758 11.8848C3.53385 11.7187 3.55664 11.5576 3.58594 11.4014C3.61523 11.2451 3.65104 11.0986 3.69336 10.9619C3.73568 10.8252 3.78451 10.7048 3.83984 10.6006L4.67969 10.6006C4.6276 10.708 4.57389 10.8317 4.51855 10.9717C4.46647 11.1149 4.41927 11.2646 4.37695 11.4209C4.33464 11.5771 4.29883 11.7367 4.26953 11.8994C4.24349 12.0654 4.23047 12.2249 4.23047 12.3779L6.34961 12.3779C6.44727 12.0882 6.5498 11.8359 6.65723 11.6211C6.76465 11.4095 6.88672 11.2337 7.02344 11.0937C7.16341 10.9538 7.32292 10.8496 7.50195 10.7812C7.68099 10.7129 7.89095 10.6787 8.13184 10.6787C8.34993 10.6787 8.5485 10.7178 8.72754 10.7959C8.90983 10.8773 9.06771 10.9912 9.20117 11.1377C9.33789 11.2874 9.44857 11.4665 9.5332 11.6748C9.62109 11.8864 9.67969 12.1208 9.70898 12.3779L10.5879 12.3779L10.5879 13.0518L9.72852 13.0518C9.71224 13.3773 9.66992 13.6768 9.60156 13.9502C9.5332 14.2269 9.44857 14.4743 9.34766 14.6924L8.63965 14.3701C8.72103 14.1878 8.79427 13.9827 8.85937 13.7549C8.92773 13.527 8.97168 13.2926 8.99121 13.0518L6.93066 13.0518C6.82975 13.3382 6.72559 13.5905 6.61816 13.8086C6.51074 14.0299 6.38867 14.2139 6.25195 14.3604C6.11849 14.5101 5.96387 14.6224 5.78809 14.6973C5.61556 14.7721 5.41211 14.8096 5.17773 14.8096ZM5.17773 13.9502C5.28516 13.9502 5.38281 13.9339 5.4707 13.9014C5.56185 13.8688 5.64323 13.8167 5.71484 13.7451C5.78971 13.6768 5.85807 13.5856 5.91992 13.4717C5.98177 13.3577 6.04199 13.2178 6.10059 13.0518L4.2793 13.0518C4.32487 13.3545 4.42741 13.5791 4.58691 13.7256C4.74642 13.8753 4.94336 13.9502 5.17773 13.9502ZM8.12207 11.5381C8.00488 11.5381 7.89909 11.5511 7.80469 11.5771C7.71354 11.6064 7.62891 11.6536 7.55078 11.7187C7.47591 11.7839 7.40755 11.8701 7.3457 11.9775C7.28385 12.085 7.22526 12.2184 7.16992 12.3779L8.97168 12.3779C8.9196 12.0882 8.82031 11.875 8.67383 11.7383C8.5306 11.6048 8.34668 11.5381 8.12207 11.5381ZM7.37988 18.1689C7.37988 18.4912 7.33431 18.7907 7.24316 19.0674C7.15527 19.3473 7.02344 19.5898 6.84766 19.7949C6.67187 20.0033 6.45378 20.166 6.19336 20.2832C5.93294 20.4004 5.63184 20.459 5.29004 20.459C4.91894 20.459 4.58529 20.4036 4.28906 20.293C3.99284 20.1823 3.74219 20.0179 3.53711 19.7998C3.33203 19.5817 3.17415 19.3115 3.06348 18.9893C2.95605 18.6702 2.90234 18.3024 2.90234 17.8857C2.90234 17.7197 2.91048 17.5553 2.92676 17.3926C2.94303 17.2331 2.96745 17.0785 3 16.9287C3.0293 16.7822 3.06836 16.6423 3.11719 16.5088C3.16602 16.3753 3.22298 16.2549 3.28809 16.1475L4.12793 16.1475C4.05306 16.2549 3.98633 16.3802 3.92773 16.5234C3.86914 16.6699 3.82031 16.8229 3.78125 16.9824C3.74219 17.1419 3.71126 17.3014 3.68848 17.4609C3.66894 17.6237 3.65918 17.7734 3.65918 17.9102C3.65918 18.1673 3.68848 18.3968 3.74707 18.5986C3.80892 18.8005 3.90332 18.9714 4.03027 19.1113C4.15723 19.2513 4.31673 19.3587 4.50879 19.4336C4.70085 19.5085 4.92871 19.5459 5.19238 19.5459C5.65788 19.5459 6.01269 19.4027 6.25684 19.1162C6.50423 18.8298 6.62793 18.4131 6.62793 17.8662C6.62793 17.7783 6.62305 17.6823 6.61328 17.5781C6.60677 17.4772 6.597 17.3747 6.58398 17.2705C6.57096 17.1696 6.55631 17.0719 6.54004 16.9775C6.52702 16.8864 6.514 16.8066 6.50098 16.7383L6.7793 16.2988L10.1387 16.5674L10.1387 19.9365L9.32812 19.9365L9.32812 17.3389L7.28223 17.1484C7.30176 17.2526 7.32292 17.3893 7.3457 17.5586C7.36849 17.7311 7.37988 17.9346 7.37988 18.1689ZM6.5791 26.0547C6.00293 26.0547 5.48698 26.0124 5.03125 25.9277C4.57552 25.8464 4.18978 25.7129 3.87402 25.5273C3.55827 25.3451 3.31738 25.109 3.15137 24.8193C2.98535 24.5296 2.90234 24.1781 2.90234 23.7646C2.90234 23.3805 2.98535 23.0452 3.15137 22.7588C3.31738 22.4756 3.55827 22.2396 3.87402 22.0508C4.18978 21.8652 4.57552 21.7253 5.03125 21.6309C5.48698 21.5397 6.00293 21.4941 6.5791 21.4941C7.15527 21.4941 7.67122 21.5348 8.12695 21.6162C8.58268 21.7008 8.9668 21.8327 9.2793 22.0117C9.59505 22.194 9.83594 22.4284 10.002 22.7148C10.168 23.0046 10.251 23.3545 10.251 23.7646C10.251 24.152 10.168 24.4889 10.002 24.7754C9.83919 25.0618 9.59993 25.2995 9.28418 25.4883C8.97168 25.6771 8.58756 25.8187 8.13184 25.9131C7.67611 26.0075 7.15853 26.0547 6.5791 26.0547ZM6.5791 22.3975C6.09082 22.3975 5.66439 22.4219 5.2998 22.4707C4.93522 22.5195 4.63086 22.5977 4.38672 22.7051C4.14583 22.8125 3.96354 22.9525 3.83984 23.125C3.7194 23.3008 3.65918 23.514 3.65918 23.7646C3.65918 24.0153 3.7194 24.2285 3.83984 24.4043C3.96029 24.5801 4.14095 24.7233 4.38184 24.834C4.62272 24.9479 4.92546 25.0293 5.29004 25.0781C5.65788 25.1302 6.08756 25.1562 6.5791 25.1562C7.06738 25.1562 7.49381 25.1302 7.8584 25.0781C8.22298 25.0293 8.52572 24.9479 8.7666 24.834C9.00749 24.7233 9.18815 24.5801 9.30859 24.4043C9.42904 24.2285 9.48926 24.0153 9.48926 23.7646C9.48926 23.514 9.42904 23.3008 9.30859 23.125C9.18815 22.9525 9.00749 22.8125 8.7666 22.7051C8.52572 22.5977 8.22298 22.5195 7.8584 22.4707C7.49381 22.4219 7.06738 22.3975 6.5791 22.3975ZM6.5791 31.5625C6.00293 31.5625 5.48698 31.5202 5.03125 31.4355C4.57552 31.3542 4.18978 31.2207 3.87402 31.0352C3.55827 30.8529 3.31738 30.6169 3.15137 30.3271C2.98535 30.0374 2.90234 29.6859 2.90234 29.2725C2.90234 28.8883 2.98535 28.5531 3.15137 28.2666C3.31738 27.9834 3.55827 27.7474 3.87402 27.5586C4.18978 27.373 4.57552 27.2331 5.03125 27.1387C5.48698 27.0475 6.00293 27.002 6.5791 27.002C7.15527 27.002 7.67122 27.0426 8.12695 27.124C8.58268 27.2087 8.9668 27.3405 9.2793 27.5195C9.59505 27.7018 9.83594 27.9362 10.002 28.2227C10.168 28.5124 10.251 28.8623 10.251 29.2725C10.251 29.6598 10.168 29.9967 10.002 30.2832C9.83919 30.5697 9.59993 30.8073 9.28418 30.9961C8.97168 31.1849 8.58756 31.3265 8.13184 31.4209C7.67611 31.5153 7.15853 31.5625 6.5791 31.5625ZM6.5791 27.9053C6.09082 27.9053 5.66439 27.9297 5.2998 27.9785C4.93522 28.0273 4.63086 28.1055 4.38672 28.2129C4.14583 28.3203 3.96354 28.4603 3.83984 28.6328C3.7194 28.8086 3.65918 29.0218 3.65918 29.2725C3.65918 29.5231 3.7194 29.7363 3.83984 29.9121C3.96029 30.0879 4.14095 30.2311 4.38184 30.3418C4.62272 30.4557 4.92545 30.5371 5.29004 30.5859C5.65788 30.638 6.08756 30.6641 6.5791 30.6641C7.06738 30.6641 7.49381 30.638 7.8584 30.5859C8.22298 30.5371 8.52572 30.4557 8.7666 30.3418C9.00749 30.2311 9.18815 30.0879 9.30859 29.9121C9.42904 29.7363 9.48926 29.5231 9.48926 29.2725C9.48926 29.0218 9.42904 28.8086 9.30859 28.6328C9.18815 28.4603 9.00749 28.3203 8.7666 28.2129C8.52572 28.1055 8.22298 28.0273 7.8584 27.9785C7.49381 27.9297 7.06738 27.9053 6.5791 27.9053Z" fill="#656D76"/>
<rect x="6" width="1" height="8" fill="#D9D9D9"/>
<rect x="119" width="1" height="8" fill="#D9D9D9"/>
<rect x="269" width="1" height="8" fill="#D9D9D9"/>
<rect x="461" width="1" height="8" fill="#D9D9D9"/>
<rect x="669" width="1" height="8" fill="#D9D9D9"/>
<path d="M864 13.4717L864 12.6123L868.458 12.6123C868.598 12.6123 868.748 12.6123 868.907 12.6123C869.067 12.6156 869.225 12.6188 869.381 12.6221C869.54 12.6286 869.692 12.6335 869.835 12.6367C869.981 12.6432 870.11 12.6481 870.221 12.6514C870.162 12.596 870.112 12.5472 870.069 12.5049C870.027 12.4626 869.986 12.4186 869.947 12.373C869.908 12.3307 869.866 12.2852 869.82 12.2363C869.778 12.1875 869.728 12.1289 869.669 12.0605L869.078 11.3379L869.679 10.8691L871.139 12.7393L871.139 13.4717L864 13.4717ZM867.579 20.5469C867.003 20.5469 866.487 20.5046 866.031 20.4199C865.576 20.3385 865.19 20.2051 864.874 20.0195C864.558 19.8372 864.317 19.6012 864.151 19.3115C863.985 19.0218 863.902 18.6702 863.902 18.2568C863.902 17.8727 863.985 17.5374 864.151 17.251C864.317 16.9678 864.558 16.7318 864.874 16.543C865.19 16.3574 865.576 16.2174 866.031 16.123C866.487 16.0319 867.003 15.9863 867.579 15.9863C868.155 15.9863 868.671 16.027 869.127 16.1084C869.583 16.193 869.967 16.3249 870.279 16.5039C870.595 16.6862 870.836 16.9206 871.002 17.207C871.168 17.4967 871.251 17.8467 871.251 18.2568C871.251 18.6442 871.168 18.9811 871.002 19.2676C870.839 19.554 870.6 19.7917 870.284 19.9805C869.972 20.1693 869.588 20.3109 869.132 20.4053C868.676 20.4997 868.159 20.5469 867.579 20.5469ZM867.579 16.8896C867.091 16.8896 866.664 16.9141 866.3 16.9629C865.935 17.0117 865.631 17.0898 865.387 17.1973C865.146 17.3047 864.964 17.4447 864.84 17.6172C864.719 17.793 864.659 18.0062 864.659 18.2568C864.659 18.5075 864.719 18.7207 864.84 18.8965C864.96 19.0723 865.141 19.2155 865.382 19.3262C865.623 19.4401 865.925 19.5215 866.29 19.5703C866.658 19.6224 867.088 19.6484 867.579 19.6484C868.067 19.6484 868.494 19.6224 868.858 19.5703C869.223 19.5215 869.526 19.4401 869.767 19.3262C870.007 19.2155 870.188 19.0723 870.309 18.8965C870.429 18.7207 870.489 18.5075 870.489 18.2568C870.489 18.0062 870.429 17.793 870.309 17.6172C870.188 17.4447 870.007 17.3047 869.767 17.1973C869.526 17.0898 869.223 17.0117 868.858 16.9629C868.494 16.9141 868.067 16.8896 867.579 16.8896ZM864 26.8066L864 25.7764L867.408 23.5742L866.852 22.8955L864 22.8955L864 21.9873L871.139 21.9873L871.139 22.8955L867.569 22.8955L868.39 23.4863L871.139 25.6934L871.139 26.7139L868.028 24.1748L864 26.8066Z" fill="#656D76"/>
<rect x="867" width="1" height="8" fill="#D9D9D9"/>
</svg>
