<svg width="873" height="22" viewBox="0 0 873 22" fill="none" xmlns="http://www.w3.org/2000/svg">
<path d="M3 13.4717L3 12.6123L7.45801 12.6123C7.59798 12.6123 7.74772 12.6123 7.90723 12.6123C8.06673 12.6156 8.22461 12.6188 8.38086 12.6221C8.54036 12.6286 8.69173 12.6335 8.83496 12.6367C8.98145 12.6432 9.11003 12.6481 9.2207 12.6514C9.16211 12.596 9.11165 12.5472 9.06934 12.5049C9.02702 12.4626 8.98633 12.4186 8.94727 12.373C8.9082 12.3307 8.86589 12.2852 8.82031 12.2363C8.77799 12.1875 8.72754 12.1289 8.66895 12.0605L8.07812 11.3379L8.67871 10.8691L10.1387 12.7393L10.1387 13.4717L3 13.4717ZM6.5791 20.5469C6.00293 20.5469 5.48698 20.5046 5.03125 20.4199C4.57552 20.3385 4.18978 20.2051 3.87402 20.0195C3.55827 19.8372 3.31738 19.6012 3.15137 19.3115C2.98535 19.0218 2.90234 18.6702 2.90234 18.2568C2.90234 17.8727 2.98535 17.5374 3.15137 17.251C3.31738 16.9678 3.55827 16.7318 3.87402 16.543C4.18978 16.3574 4.57552 16.2174 5.03125 16.123C5.48698 16.0319 6.00293 15.9863 6.5791 15.9863C7.15527 15.9863 7.67122 16.027 8.12695 16.1084C8.58268 16.193 8.9668 16.3249 9.2793 16.5039C9.59505 16.6862 9.83594 16.9206 10.002 17.207C10.168 17.4967 10.251 17.8467 10.251 18.2568C10.251 18.6442 10.168 18.9811 10.002 19.2676C9.83919 19.554 9.59993 19.7917 9.28418 19.9805C8.97168 20.1693 8.58756 20.3109 8.13184 20.4053C7.67611 20.4997 7.15853 20.5469 6.5791 20.5469ZM6.5791 16.8896C6.09082 16.8896 5.66439 16.9141 5.2998 16.9629C4.93522 17.0117 4.63086 17.0898 4.38672 17.1973C4.14583 17.3047 3.96354 17.4447 3.83984 17.6172C3.7194 17.793 3.65918 18.0062 3.65918 18.2568C3.65918 18.5075 3.7194 18.7207 3.83984 18.8965C3.96029 19.0723 4.14095 19.2155 4.38184 19.3262C4.62272 19.4401 4.92546 19.5215 5.29004 19.5703C5.65788 19.6224 6.08756 19.6484 6.5791 19.6484C7.06738 19.6484 7.49381 19.6224 7.8584 19.5703C8.22298 19.5215 8.52572 19.4401 8.7666 19.3262C9.00749 19.2155 9.18815 19.0723 9.30859 18.8965C9.42904 18.7207 9.48926 18.5075 9.48926 18.2568C9.48926 18.0062 9.42904 17.793 9.30859 17.6172C9.18815 17.4447 9.00749 17.3047 8.7666 17.1973C8.52572 17.0898 8.22298 17.0117 7.8584 16.9629C7.49381 16.9141 7.06738 16.8896 6.5791 16.8896Z" fill="#656D76"/>
<rect x="6" width="1" height="8" fill="#D9D9D9"/>
<path d="M116 14.9219L116 10.4687L116.762 10.4687L118.622 12.1777C118.886 12.4219 119.127 12.64 119.345 12.832C119.563 13.0241 119.776 13.1868 119.984 13.3203C120.193 13.457 120.401 13.5612 120.609 13.6328C120.821 13.7044 121.05 13.7402 121.298 13.7402C121.49 13.7402 121.659 13.7126 121.806 13.6572C121.952 13.6019 122.076 13.5221 122.177 13.418C122.281 13.3171 122.359 13.1966 122.411 13.0566C122.463 12.9167 122.489 12.7604 122.489 12.5879C122.489 12.2786 122.426 11.9987 122.299 11.748C122.175 11.5007 122.016 11.2646 121.82 11.04L122.401 10.542C122.519 10.6722 122.628 10.8122 122.729 10.9619C122.833 11.1117 122.922 11.2728 122.997 11.4453C123.072 11.6178 123.131 11.8001 123.173 11.9922C123.218 12.1842 123.241 12.3861 123.241 12.5977C123.241 12.9102 123.197 13.1917 123.109 13.4424C123.021 13.6963 122.895 13.9111 122.729 14.0869C122.566 14.2627 122.366 14.3978 122.128 14.4922C121.894 14.5898 121.628 14.6387 121.332 14.6387C121.055 14.6387 120.792 14.5947 120.541 14.5068C120.29 14.4222 120.043 14.3034 119.799 14.1504C119.558 14.0007 119.315 13.82 119.071 13.6084C118.827 13.4001 118.573 13.1738 118.31 12.9297L116.85 11.5576L116.811 11.5576L116.811 14.9219L116 14.9219ZM119.579 20.5469C119.003 20.5469 118.487 20.5046 118.031 20.4199C117.576 20.3385 117.19 20.2051 116.874 20.0195C116.558 19.8372 116.317 19.6012 116.151 19.3115C115.985 19.0218 115.902 18.6702 115.902 18.2568C115.902 17.8727 115.985 17.5374 116.151 17.251C116.317 16.9678 116.558 16.7318 116.874 16.543C117.19 16.3574 117.576 16.2174 118.031 16.123C118.487 16.0319 119.003 15.9863 119.579 15.9863C120.155 15.9863 120.671 16.027 121.127 16.1084C121.583 16.193 121.967 16.3249 122.279 16.5039C122.595 16.6862 122.836 16.9206 123.002 17.207C123.168 17.4967 123.251 17.8467 123.251 18.2568C123.251 18.6442 123.168 18.9811 123.002 19.2676C122.839 19.554 122.6 19.7917 122.284 19.9805C121.972 20.1693 121.588 20.3109 121.132 20.4053C120.676 20.4997 120.159 20.5469 119.579 20.5469ZM119.579 16.8896C119.091 16.8896 118.664 16.9141 118.3 16.9629C117.935 17.0117 117.631 17.0898 117.387 17.1973C117.146 17.3047 116.964 17.4447 116.84 17.6172C116.719 17.793 116.659 18.0062 116.659 18.2568C116.659 18.5075 116.719 18.7207 116.84 18.8965C116.96 19.0723 117.141 19.2155 117.382 19.3262C117.623 19.4401 117.925 19.5215 118.29 19.5703C118.658 19.6224 119.088 19.6484 119.579 19.6484C120.067 19.6484 120.494 19.6224 120.858 19.5703C121.223 19.5215 121.526 19.4401 121.767 19.3262C122.007 19.2155 122.188 19.0723 122.309 18.8965C122.429 18.7207 122.489 18.5075 122.489 18.2568C122.489 18.0062 122.429 17.793 122.309 17.6172C122.188 17.4447 122.007 17.3047 121.767 17.1973C121.526 17.0898 121.223 17.0117 120.858 16.9629C120.494 16.9141 120.067 16.8896 119.579 16.8896Z" fill="#656D76"/>
<rect x="119" width="1" height="8" fill="#D9D9D9"/>
<rect x="269" width="1" height="8" fill="#D9D9D9"/>
<rect x="461" width="1" height="8" fill="#D9D9D9"/>
<rect x="669" width="1" height="8" fill="#D9D9D9"/>
<path d="M868.092 15.0195C867.75 15.0195 867.408 15.0016 867.066 14.9658C866.728 14.9333 866.404 14.873 866.095 14.7852C865.785 14.7005 865.496 14.5833 865.226 14.4336C864.959 14.2839 864.728 14.0934 864.532 13.8623C864.337 13.6312 864.182 13.3545 864.068 13.0322C863.958 12.71 863.902 12.3324 863.902 11.8994C863.902 11.8376 863.904 11.7692 863.907 11.6943C863.91 11.6195 863.917 11.5446 863.927 11.4697C863.933 11.3949 863.941 11.3216 863.951 11.25C863.961 11.1784 863.974 11.1149 863.99 11.0596L864.752 11.0596C864.71 11.1735 864.679 11.3021 864.659 11.4453C864.64 11.5885 864.63 11.7301 864.63 11.8701C864.63 12.3096 864.706 12.6709 864.859 12.9541C865.012 13.2373 865.219 13.4619 865.479 13.6279C865.743 13.7939 866.049 13.9111 866.397 13.9795C866.746 14.0511 867.114 14.0951 867.501 14.1113L867.501 14.0479C867.384 13.9827 867.275 13.9046 867.174 13.8135C867.073 13.7223 866.985 13.6149 866.91 13.4912C866.835 13.3675 866.777 13.2275 866.734 13.0713C866.692 12.915 866.671 12.7409 866.671 12.5488C866.671 12.2396 866.718 11.9596 866.812 11.709C866.91 11.4583 867.052 11.2451 867.237 11.0693C867.423 10.8936 867.649 10.7568 867.916 10.6592C868.186 10.5648 868.494 10.5176 868.839 10.5176C869.21 10.5176 869.544 10.568 869.84 10.6689C870.139 10.7731 870.392 10.918 870.597 11.1035C870.805 11.2923 870.965 11.5202 871.075 11.7871C871.186 12.0573 871.241 12.3584 871.241 12.6904C871.241 13.0192 871.178 13.3252 871.051 13.6084C870.924 13.8916 870.73 14.1374 870.47 14.3457C870.209 14.554 869.881 14.7184 869.483 14.8389C869.09 14.9593 868.626 15.0195 868.092 15.0195ZM870.489 12.7002C870.489 12.5049 870.457 12.3258 870.392 12.1631C870.326 12.0036 870.226 11.8652 870.089 11.748C869.952 11.6309 869.78 11.5397 869.571 11.4746C869.366 11.4128 869.122 11.3818 868.839 11.3818C868.611 11.3818 868.406 11.4079 868.224 11.46C868.045 11.5153 867.892 11.5967 867.765 11.7041C867.638 11.8115 867.54 11.945 867.472 12.1045C867.403 12.2673 867.369 12.4561 867.369 12.6709C867.369 12.8923 867.407 13.0924 867.481 13.2715C867.56 13.4505 867.659 13.6035 867.779 13.7305C867.903 13.8574 868.043 13.9551 868.199 14.0234C868.355 14.0951 868.512 14.1309 868.668 14.1309C868.886 14.1309 869.103 14.0999 869.317 14.0381C869.535 13.9795 869.731 13.89 869.903 13.7695C870.079 13.6523 870.221 13.5042 870.328 13.3252C870.436 13.1462 870.489 12.9378 870.489 12.7002ZM867.579 20.5469C867.003 20.5469 866.487 20.5046 866.031 20.4199C865.576 20.3385 865.19 20.2051 864.874 20.0195C864.558 19.8372 864.317 19.6012 864.151 19.3115C863.985 19.0218 863.902 18.6702 863.902 18.2568C863.902 17.8727 863.985 17.5374 864.151 17.251C864.317 16.9678 864.558 16.7318 864.874 16.543C865.19 16.3574 865.576 16.2174 866.031 16.123C866.487 16.0319 867.003 15.9863 867.579 15.9863C868.155 15.9863 868.671 16.027 869.127 16.1084C869.583 16.193 869.967 16.3249 870.279 16.5039C870.595 16.6862 870.836 16.9206 871.002 17.207C871.168 17.4967 871.251 17.8467 871.251 18.2568C871.251 18.6442 871.168 18.9811 871.002 19.2676C870.839 19.554 870.6 19.7917 870.284 19.9805C869.972 20.1693 869.588 20.3109 869.132 20.4053C868.676 20.4997 868.159 20.5469 867.579 20.5469ZM867.579 16.8896C867.091 16.8896 866.664 16.9141 866.3 16.9629C865.935 17.0117 865.631 17.0898 865.387 17.1973C865.146 17.3047 864.964 17.4447 864.84 17.6172C864.719 17.793 864.659 18.0062 864.659 18.2568C864.659 18.5075 864.719 18.7207 864.84 18.8965C864.96 19.0723 865.141 19.2155 865.382 19.3262C865.623 19.4401 865.925 19.5215 866.29 19.5703C866.658 19.6224 867.088 19.6484 867.579 19.6484C868.067 19.6484 868.494 19.6224 868.858 19.5703C869.223 19.5215 869.526 19.4401 869.767 19.3262C870.007 19.2155 870.188 19.0723 870.309 18.8965C870.429 18.7207 870.489 18.5075 870.489 18.2568C870.489 18.0062 870.429 17.793 870.309 17.6172C870.188 17.4447 870.007 17.3047 869.767 17.1973C869.526 17.0898 869.223 17.0117 868.858 16.9629C868.494 16.9141 868.067 16.8896 867.579 16.8896Z" fill="#656D76"/>
<rect x="867" width="1" height="8" fill="#D9D9D9"/>
</svg>
