<svg width="873" height="22" viewBox="0 0 873 22" fill="none" xmlns="http://www.w3.org/2000/svg">
<path d="M6.5791 15.0391C6.00293 15.0391 5.48698 14.9967 5.03125 14.9121C4.57552 14.8307 4.18978 14.6973 3.87402 14.5117C3.55827 14.3294 3.31738 14.0934 3.15137 13.8037C2.98535 13.514 2.90234 13.1624 2.90234 12.749C2.90234 12.3649 2.98535 12.0296 3.15137 11.7432C3.31738 11.46 3.55827 11.224 3.87402 11.0352C4.18978 10.8496 4.57552 10.7096 5.03125 10.6152C5.48698 10.5241 6.00293 10.4785 6.5791 10.4785C7.15527 10.4785 7.67122 10.5192 8.12695 10.6006C8.58268 10.6852 8.9668 10.8171 9.2793 10.9961C9.59505 11.1784 9.83594 11.4128 10.002 11.6992C10.168 11.9889 10.251 12.3389 10.251 12.749C10.251 13.1364 10.168 13.4733 10.002 13.7598C9.83919 14.0462 9.59993 14.2839 9.28418 14.4727C8.97168 14.6615 8.58756 14.8031 8.13184 14.8975C7.67611 14.9919 7.15853 15.0391 6.5791 15.0391ZM6.5791 11.3818C6.09082 11.3818 5.66439 11.4062 5.2998 11.4551C4.93522 11.5039 4.63086 11.582 4.38672 11.6895C4.14583 11.7969 3.96354 11.9368 3.83984 12.1094C3.7194 12.2852 3.65918 12.4984 3.65918 12.749C3.65918 12.9997 3.7194 13.2129 3.83984 13.3887C3.96029 13.5645 4.14095 13.7077 4.38184 13.8184C4.62272 13.9323 4.92546 14.0137 5.29004 14.0625C5.65788 14.1146 6.08756 14.1406 6.5791 14.1406C7.06738 14.1406 7.49381 14.1146 7.8584 14.0625C8.22298 14.0137 8.52572 13.9323 8.7666 13.8184C9.00749 13.7077 9.18815 13.5645 9.30859 13.3887C9.42904 13.2129 9.48926 12.9997 9.48926 12.749C9.48926 12.4984 9.42904 12.2852 9.30859 12.1094C9.18815 11.9368 9.00749 11.7969 8.7666 11.6895C8.52572 11.582 8.22298 11.5039 7.8584 11.4551C7.49382 11.4062 7.06738 11.3818 6.5791 11.3818ZM6.05176 16.0596C6.39355 16.0596 6.73372 16.0758 7.07227 16.1084C7.41081 16.1442 7.7347 16.2044 8.04395 16.2891C8.35645 16.377 8.64616 16.4958 8.91309 16.6455C9.18001 16.7952 9.41113 16.9857 9.60644 17.2168C9.80501 17.4479 9.95964 17.7246 10.0703 18.0469C10.1842 18.3691 10.2412 18.7467 10.2412 19.1797C10.2412 19.2415 10.2396 19.3099 10.2363 19.3848C10.2331 19.4596 10.2266 19.5345 10.2168 19.6094C10.2103 19.6875 10.2005 19.7607 10.1875 19.8291C10.1777 19.9007 10.1647 19.9642 10.1484 20.0195L9.3916 20.0195C9.43066 19.9056 9.45996 19.777 9.47949 19.6338C9.49902 19.4906 9.50879 19.349 9.50879 19.209C9.50879 18.916 9.47298 18.6572 9.40137 18.4326C9.33301 18.2113 9.23535 18.0192 9.1084 17.8564C8.98144 17.6937 8.83008 17.557 8.6543 17.4463C8.47852 17.3389 8.2832 17.251 8.06836 17.1826C7.85677 17.1143 7.63053 17.0638 7.38965 17.0312C7.14876 16.9987 6.89811 16.9775 6.6377 16.9678L6.6377 17.0264C6.75488 17.0915 6.86393 17.1696 6.96484 17.2607C7.06901 17.3551 7.1569 17.4642 7.22852 17.5879C7.30339 17.7116 7.36198 17.8499 7.4043 18.0029C7.44661 18.1592 7.46777 18.3333 7.46777 18.5254C7.46777 18.8346 7.41894 19.1146 7.32129 19.3652C7.22689 19.6159 7.08691 19.8291 6.90137 20.0049C6.71582 20.1807 6.48796 20.3158 6.21777 20.4102C5.95085 20.5078 5.64486 20.5566 5.2998 20.5566C4.92871 20.5566 4.59505 20.5062 4.29883 20.4053C4.0026 20.3044 3.75033 20.1595 3.54199 19.9707C3.33691 19.7819 3.17904 19.554 3.06836 19.2871C2.95768 19.0202 2.90234 18.7207 2.90234 18.3887C2.90234 18.0632 2.96582 17.7572 3.09277 17.4707C3.21973 17.1875 3.41341 16.9417 3.67383 16.7334C3.93424 16.5251 4.26139 16.3607 4.65527 16.2402C5.04915 16.1198 5.51465 16.0596 6.05176 16.0596ZM3.64941 18.3789C3.64941 18.5742 3.68197 18.7516 3.74707 18.9111C3.81543 19.0739 3.91634 19.2139 4.0498 19.3311C4.18652 19.4482 4.35742 19.5378 4.5625 19.5996C4.77083 19.6647 5.0166 19.6973 5.2998 19.6973C5.52767 19.6973 5.73112 19.6696 5.91016 19.6143C6.09245 19.5622 6.24707 19.4824 6.37402 19.375C6.50098 19.2676 6.59863 19.1325 6.66699 18.9697C6.73535 18.8102 6.76953 18.623 6.76953 18.4082C6.76953 18.1901 6.73047 17.9899 6.65234 17.8076C6.57747 17.6286 6.47819 17.4756 6.35449 17.3486C6.23405 17.2217 6.0957 17.1224 5.93945 17.0508C5.7832 16.9824 5.62695 16.9482 5.4707 16.9482C5.2526 16.9482 5.0345 16.9775 4.81641 17.0361C4.60156 17.098 4.40788 17.1875 4.23535 17.3047C4.06283 17.4251 3.92122 17.5749 3.81055 17.7539C3.70312 17.9329 3.64941 18.1413 3.64941 18.3789Z" fill="#656D76"/>
<rect x="6" width="1" height="8" fill="#D9D9D9"/>
<path d="M116 13.4717L116 12.6123L120.458 12.6123C120.598 12.6123 120.748 12.6123 120.907 12.6123C121.067 12.6156 121.225 12.6188 121.381 12.6221C121.54 12.6286 121.692 12.6335 121.835 12.6367C121.981 12.6432 122.11 12.6481 122.221 12.6514C122.162 12.596 122.112 12.5472 122.069 12.5049C122.027 12.4626 121.986 12.4186 121.947 12.373C121.908 12.3307 121.866 12.2852 121.82 12.2363C121.778 12.1875 121.728 12.1289 121.669 12.0605L121.078 11.3379L121.679 10.8691L123.139 12.7393L123.139 13.4717L116 13.4717ZM116 20.4297L116 15.9766L116.762 15.9766L118.622 17.6855C118.886 17.9297 119.127 18.1478 119.345 18.3398C119.563 18.5319 119.776 18.6947 119.984 18.8281C120.193 18.9648 120.401 19.069 120.609 19.1406C120.821 19.2122 121.05 19.248 121.298 19.248C121.49 19.248 121.659 19.2204 121.806 19.165C121.952 19.1097 122.076 19.0299 122.177 18.9258C122.281 18.8249 122.359 18.7044 122.411 18.5645C122.463 18.4245 122.489 18.2682 122.489 18.0957C122.489 17.7865 122.426 17.5065 122.299 17.2559C122.175 17.0085 122.016 16.7725 121.82 16.5479L122.401 16.0498C122.519 16.18 122.628 16.32 122.729 16.4697C122.833 16.6195 122.922 16.7806 122.997 16.9531C123.072 17.1257 123.131 17.3079 123.173 17.5C123.218 17.6921 123.241 17.8939 123.241 18.1055C123.241 18.418 123.197 18.6995 123.109 18.9502C123.021 19.2041 122.895 19.4189 122.729 19.5947C122.566 19.7705 122.366 19.9056 122.128 20C121.894 20.0977 121.628 20.1465 121.332 20.1465C121.055 20.1465 120.792 20.1025 120.541 20.0146C120.29 19.93 120.043 19.8112 119.799 19.6582C119.558 19.5085 119.315 19.3278 119.071 19.1162C118.827 18.9079 118.573 18.6816 118.31 18.4375L116.85 17.0654L116.811 17.0654L116.811 20.4297L116 20.4297Z" fill="#656D76"/>
<rect x="119" width="1" height="8" fill="#D9D9D9"/>
<path d="M266 13.4717L266 12.6123L270.458 12.6123C270.598 12.6123 270.748 12.6123 270.907 12.6123C271.067 12.6156 271.225 12.6188 271.381 12.6221C271.54 12.6286 271.692 12.6335 271.835 12.6367C271.981 12.6432 272.11 12.6481 272.221 12.6514C272.162 12.596 272.112 12.5472 272.069 12.5049C272.027 12.4626 271.986 12.4186 271.947 12.373C271.908 12.3307 271.866 12.2852 271.82 12.2363C271.778 12.1875 271.728 12.1289 271.669 12.0605L271.078 11.3379L271.679 10.8691L273.139 12.7393L273.139 13.4717L266 13.4717ZM273.251 18.2666C273.251 18.54 273.215 18.7972 273.144 19.0381C273.072 19.2822 272.965 19.4954 272.821 19.6777C272.678 19.8633 272.499 20.0098 272.284 20.1172C272.069 20.2246 271.819 20.2783 271.532 20.2783C271.314 20.2783 271.117 20.2458 270.941 20.1807C270.766 20.1156 270.606 20.026 270.463 19.9121C270.323 19.7982 270.196 19.6631 270.082 19.5068C269.971 19.3506 269.87 19.1813 269.779 18.999C269.678 19.1878 269.566 19.3717 269.442 19.5508C269.319 19.7331 269.179 19.8942 269.022 20.0342C268.869 20.1774 268.697 20.2913 268.505 20.376C268.313 20.4639 268.098 20.5078 267.86 20.5078C267.561 20.5078 267.289 20.4525 267.045 20.3418C266.804 20.2344 266.599 20.0814 266.43 19.8828C266.26 19.6875 266.13 19.4515 266.039 19.1748C265.948 18.9014 265.902 18.5986 265.902 18.2666C265.902 17.9085 265.946 17.5895 266.034 17.3096C266.122 17.0329 266.247 16.7985 266.41 16.6064C266.576 16.4176 266.778 16.2728 267.016 16.1719C267.253 16.0742 267.522 16.0254 267.821 16.0254C268.065 16.0254 268.285 16.0612 268.48 16.1328C268.676 16.2077 268.852 16.307 269.008 16.4307C269.164 16.5544 269.302 16.7008 269.423 16.8701C269.543 17.0394 269.649 17.2184 269.74 17.4072C269.841 17.2477 269.95 17.098 270.067 16.958C270.188 16.818 270.321 16.696 270.468 16.5918C270.614 16.4909 270.775 16.4095 270.951 16.3477C271.13 16.2891 271.327 16.2598 271.542 16.2598C271.825 16.2598 272.073 16.3135 272.284 16.4209C272.499 16.5316 272.678 16.6797 272.821 16.8652C272.965 17.0508 273.072 17.264 273.144 17.5049C273.215 17.749 273.251 18.0029 273.251 18.2666ZM267.812 16.8994C267.639 16.8994 267.479 16.9255 267.333 16.9775C267.19 17.0296 267.066 17.111 266.962 17.2217C266.861 17.3324 266.781 17.4723 266.723 17.6416C266.667 17.8109 266.64 18.0127 266.64 18.2471C266.64 18.4749 266.667 18.6751 266.723 18.8477C266.781 19.0234 266.863 19.1699 266.967 19.2871C267.074 19.4043 267.203 19.4922 267.353 19.5508C267.502 19.6094 267.668 19.6387 267.851 19.6387C268.02 19.6387 268.173 19.6061 268.31 19.541C268.446 19.4792 268.573 19.388 268.69 19.2676C268.808 19.1504 268.918 19.0088 269.022 18.8428C269.127 18.6768 269.229 18.4912 269.33 18.2861L269.398 18.1396C269.203 17.7295 268.979 17.4202 268.725 17.2119C268.474 17.0036 268.17 16.8994 267.812 16.8994ZM272.509 18.2568C272.509 17.9118 272.423 17.6367 272.25 17.4316C272.077 17.2298 271.827 17.1289 271.498 17.1289C271.312 17.1289 271.153 17.1566 271.02 17.2119C270.886 17.2705 270.767 17.3503 270.663 17.4512C270.559 17.5521 270.465 17.6725 270.38 17.8125C270.299 17.9557 270.219 18.1104 270.141 18.2764C270.212 18.4326 270.29 18.5791 270.375 18.7158C270.46 18.8558 270.556 18.9762 270.663 19.0771C270.771 19.1813 270.893 19.2627 271.029 19.3213C271.166 19.3799 271.322 19.4092 271.498 19.4092C271.827 19.4092 272.077 19.3066 272.25 19.1016C272.423 18.8965 272.509 18.6149 272.509 18.2568Z" fill="#656D76"/>
<rect x="269" width="1" height="8" fill="#D9D9D9"/>
<path d="M458 14.9219L458 10.4687L458.762 10.4687L460.622 12.1777C460.886 12.4219 461.127 12.64 461.345 12.832C461.563 13.0241 461.776 13.1868 461.984 13.3203C462.193 13.457 462.401 13.5612 462.609 13.6328C462.821 13.7044 463.05 13.7402 463.298 13.7402C463.49 13.7402 463.659 13.7126 463.806 13.6572C463.952 13.6019 464.076 13.5221 464.177 13.418C464.281 13.3171 464.359 13.1966 464.411 13.0566C464.463 12.9167 464.489 12.7604 464.489 12.5879C464.489 12.2786 464.426 11.9987 464.299 11.748C464.175 11.5007 464.016 11.2646 463.82 11.04L464.401 10.542C464.519 10.6722 464.628 10.8122 464.729 10.9619C464.833 11.1117 464.922 11.2728 464.997 11.4453C465.072 11.6178 465.131 11.8001 465.173 11.9922C465.218 12.1842 465.241 12.3861 465.241 12.5977C465.241 12.9102 465.197 13.1917 465.109 13.4424C465.021 13.6963 464.895 13.9111 464.729 14.0869C464.566 14.2627 464.366 14.3978 464.128 14.4922C463.894 14.5898 463.628 14.6387 463.332 14.6387C463.055 14.6387 462.792 14.5947 462.541 14.5068C462.29 14.4222 462.043 14.3034 461.799 14.1504C461.558 14.0007 461.315 13.82 461.071 13.6084C460.827 13.4001 460.573 13.1738 460.31 12.9297L458.85 11.5576L458.811 11.5576L458.811 14.9219L458 14.9219ZM459.602 20.8154L459.602 19.7754L458 19.7754L458 18.916L459.602 18.916L459.602 15.6201L460.378 15.6201L465.178 18.8574L465.178 19.7754L460.412 19.7754L460.412 20.8154L459.602 20.8154ZM460.412 18.916L462.15 18.916C462.333 18.916 462.523 18.9176 462.722 18.9209C462.924 18.9274 463.119 18.9339 463.308 18.9404C463.5 18.9469 463.679 18.9535 463.845 18.96C464.011 18.9697 464.149 18.9762 464.26 18.9795L464.26 18.9355C464.195 18.9128 464.121 18.8835 464.04 18.8477C463.962 18.8151 463.882 18.7777 463.801 18.7354C463.723 18.6963 463.646 18.6556 463.571 18.6133C463.496 18.571 463.433 18.5319 463.381 18.4961L460.412 16.4893L460.412 18.916Z" fill="#656D76"/>
<rect x="461" width="1" height="8" fill="#D9D9D9"/>
<path d="M671.469 14.6924C671.231 14.6924 671.015 14.6549 670.819 14.5801C670.624 14.5052 670.455 14.3994 670.312 14.2627C670.168 14.1292 670.049 13.9681 669.955 13.7793C669.864 13.5905 669.799 13.3805 669.76 13.1494L669.73 13.1494C669.659 13.7256 669.475 14.1634 669.179 14.4629C668.886 14.7624 668.503 14.9121 668.031 14.9121C667.719 14.9121 667.432 14.8584 667.172 14.751C666.911 14.6468 666.687 14.4873 666.498 14.2725C666.309 14.0576 666.163 13.7858 666.059 13.457C665.954 13.1283 665.902 12.7393 665.902 12.29C665.902 11.9352 665.93 11.5999 665.985 11.2842C666.041 10.9717 666.142 10.6771 666.288 10.4004L667.118 10.4004C666.968 10.6836 666.853 10.9896 666.771 11.3184C666.69 11.6504 666.649 11.9678 666.649 12.2705C666.649 12.57 666.682 12.8288 666.747 13.0469C666.812 13.265 666.905 13.444 667.025 13.584C667.146 13.7272 667.294 13.8314 667.47 13.8965C667.646 13.9648 667.842 13.999 668.061 13.999C668.282 13.999 668.471 13.9551 668.627 13.8672C668.786 13.7826 668.917 13.6605 669.018 13.501C669.122 13.3415 669.198 13.1462 669.247 12.915C669.296 12.6872 669.32 12.4284 669.32 12.1387L669.32 11.4893L670.058 11.4893L670.058 12.1387C670.058 12.4023 670.09 12.6367 670.155 12.8418C670.22 13.0469 670.313 13.2178 670.434 13.3545C670.554 13.4945 670.697 13.6003 670.863 13.6719C671.029 13.7435 671.212 13.7793 671.41 13.7793C671.579 13.7793 671.731 13.75 671.864 13.6914C671.998 13.6328 672.11 13.5498 672.201 13.4424C672.296 13.335 672.367 13.2064 672.416 13.0566C672.465 12.9069 672.489 12.7409 672.489 12.5586C672.489 12.2103 672.434 11.9027 672.323 11.6357C672.216 11.3721 672.074 11.1198 671.898 10.8789L672.509 10.4297C672.61 10.5534 672.704 10.6901 672.792 10.8398C672.88 10.9928 672.956 11.1589 673.021 11.3379C673.09 11.5169 673.144 11.7074 673.183 11.9092C673.222 12.1143 673.241 12.3307 673.241 12.5586C673.241 12.9102 673.197 13.2178 673.109 13.4814C673.021 13.7484 672.898 13.9714 672.738 14.1504C672.582 14.3294 672.395 14.4645 672.177 14.5557C671.962 14.6468 671.726 14.6924 671.469 14.6924ZM669.579 20.5469C669.003 20.5469 668.487 20.5046 668.031 20.4199C667.576 20.3385 667.19 20.2051 666.874 20.0195C666.558 19.8372 666.317 19.6012 666.151 19.3115C665.985 19.0218 665.902 18.6702 665.902 18.2568C665.902 17.8727 665.985 17.5374 666.151 17.251C666.317 16.9678 666.558 16.7318 666.874 16.543C667.19 16.3574 667.576 16.2174 668.031 16.123C668.487 16.0319 669.003 15.9863 669.579 15.9863C670.155 15.9863 670.671 16.027 671.127 16.1084C671.583 16.193 671.967 16.3249 672.279 16.5039C672.595 16.6862 672.836 16.9206 673.002 17.207C673.168 17.4967 673.251 17.8467 673.251 18.2568C673.251 18.6442 673.168 18.9811 673.002 19.2676C672.839 19.554 672.6 19.7917 672.284 19.9805C671.972 20.1693 671.588 20.3109 671.132 20.4053C670.676 20.4997 670.159 20.5469 669.579 20.5469ZM669.579 16.8896C669.091 16.8896 668.664 16.9141 668.3 16.9629C667.935 17.0117 667.631 17.0898 667.387 17.1973C667.146 17.3047 666.964 17.4447 666.84 17.6172C666.719 17.793 666.659 18.0062 666.659 18.2568C666.659 18.5075 666.719 18.7207 666.84 18.8965C666.96 19.0723 667.141 19.2155 667.382 19.3262C667.623 19.4401 667.925 19.5215 668.29 19.5703C668.658 19.6224 669.088 19.6484 669.579 19.6484C670.067 19.6484 670.494 19.6224 670.858 19.5703C671.223 19.5215 671.526 19.4401 671.767 19.3262C672.007 19.2155 672.188 19.0723 672.309 18.8965C672.429 18.7207 672.489 18.5075 672.489 18.2568C672.489 18.0062 672.429 17.793 672.309 17.6172C672.188 17.4447 672.007 17.3047 671.767 17.1973C671.526 17.0898 671.223 17.0117 670.858 16.9629C670.494 16.9141 670.067 16.8896 669.579 16.8896Z" fill="#656D76"/>
<rect x="669" width="1" height="8" fill="#D9D9D9"/>
<path d="M869.469 14.6924C869.231 14.6924 869.015 14.6549 868.819 14.5801C868.624 14.5052 868.455 14.3994 868.312 14.2627C868.168 14.1292 868.049 13.9681 867.955 13.7793C867.864 13.5905 867.799 13.3805 867.76 13.1494L867.73 13.1494C867.659 13.7256 867.475 14.1634 867.179 14.4629C866.886 14.7624 866.503 14.9121 866.031 14.9121C865.719 14.9121 865.432 14.8584 865.172 14.751C864.911 14.6468 864.687 14.4873 864.498 14.2725C864.309 14.0576 864.163 13.7858 864.059 13.457C863.954 13.1283 863.902 12.7393 863.902 12.29C863.902 11.9352 863.93 11.5999 863.985 11.2842C864.041 10.9717 864.142 10.6771 864.288 10.4004L865.118 10.4004C864.968 10.6836 864.853 10.9896 864.771 11.3184C864.69 11.6504 864.649 11.9678 864.649 12.2705C864.649 12.57 864.682 12.8288 864.747 13.0469C864.812 13.265 864.905 13.444 865.025 13.584C865.146 13.7272 865.294 13.8314 865.47 13.8965C865.646 13.9648 865.842 13.999 866.061 13.999C866.282 13.999 866.471 13.9551 866.627 13.8672C866.786 13.7826 866.917 13.6605 867.018 13.501C867.122 13.3415 867.198 13.1462 867.247 12.915C867.296 12.6872 867.32 12.4284 867.32 12.1387L867.32 11.4893L868.058 11.4893L868.058 12.1387C868.058 12.4023 868.09 12.6367 868.155 12.8418C868.22 13.0469 868.313 13.2178 868.434 13.3545C868.554 13.4945 868.697 13.6003 868.863 13.6719C869.029 13.7435 869.212 13.7793 869.41 13.7793C869.579 13.7793 869.731 13.75 869.864 13.6914C869.998 13.6328 870.11 13.5498 870.201 13.4424C870.296 13.335 870.367 13.2064 870.416 13.0566C870.465 12.9069 870.489 12.7409 870.489 12.5586C870.489 12.2103 870.434 11.9027 870.323 11.6357C870.216 11.3721 870.074 11.1198 869.898 10.8789L870.509 10.4297C870.61 10.5534 870.704 10.6901 870.792 10.8398C870.88 10.9928 870.956 11.1589 871.021 11.3379C871.09 11.5169 871.144 11.7074 871.183 11.9092C871.222 12.1143 871.241 12.3307 871.241 12.5586C871.241 12.9102 871.197 13.2178 871.109 13.4814C871.021 13.7484 870.898 13.9714 870.738 14.1504C870.582 14.3294 870.395 14.4645 870.177 14.5557C869.962 14.6468 869.726 14.6924 869.469 14.6924ZM867.052 16.0596C867.394 16.0596 867.734 16.0758 868.072 16.1084C868.411 16.1442 868.735 16.2044 869.044 16.2891C869.356 16.377 869.646 16.4958 869.913 16.6455C870.18 16.7952 870.411 16.9857 870.606 17.2168C870.805 17.4479 870.96 17.7246 871.07 18.0469C871.184 18.3691 871.241 18.7467 871.241 19.1797C871.241 19.2415 871.24 19.3099 871.236 19.3848C871.233 19.4596 871.227 19.5345 871.217 19.6094C871.21 19.6875 871.201 19.7607 871.187 19.8291C871.178 19.9007 871.165 19.9642 871.148 20.0195L870.392 20.0195C870.431 19.9056 870.46 19.777 870.479 19.6338C870.499 19.4906 870.509 19.349 870.509 19.209C870.509 18.916 870.473 18.6572 870.401 18.4326C870.333 18.2113 870.235 18.0192 870.108 17.8564C869.981 17.6937 869.83 17.557 869.654 17.4463C869.479 17.3389 869.283 17.251 869.068 17.1826C868.857 17.1143 868.631 17.0638 868.39 17.0312C868.149 16.9987 867.898 16.9775 867.638 16.9678L867.638 17.0264C867.755 17.0915 867.864 17.1696 867.965 17.2607C868.069 17.3551 868.157 17.4642 868.229 17.5879C868.303 17.7116 868.362 17.8499 868.404 18.0029C868.447 18.1592 868.468 18.3333 868.468 18.5254C868.468 18.8346 868.419 19.1146 868.321 19.3652C868.227 19.6159 868.087 19.8291 867.901 20.0049C867.716 20.1807 867.488 20.3158 867.218 20.4102C866.951 20.5078 866.645 20.5566 866.3 20.5566C865.929 20.5566 865.595 20.5062 865.299 20.4053C865.003 20.3044 864.75 20.1595 864.542 19.9707C864.337 19.7819 864.179 19.554 864.068 19.2871C863.958 19.0202 863.902 18.7207 863.902 18.3887C863.902 18.0632 863.966 17.7572 864.093 17.4707C864.22 17.1875 864.413 16.9417 864.674 16.7334C864.934 16.5251 865.261 16.3607 865.655 16.2402C866.049 16.1198 866.515 16.0596 867.052 16.0596ZM864.649 18.3789C864.649 18.5742 864.682 18.7516 864.747 18.9111C864.815 19.0739 864.916 19.2139 865.05 19.3311C865.187 19.4482 865.357 19.5378 865.562 19.5996C865.771 19.6647 866.017 19.6973 866.3 19.6973C866.528 19.6973 866.731 19.6696 866.91 19.6143C867.092 19.5622 867.247 19.4824 867.374 19.375C867.501 19.2676 867.599 19.1325 867.667 18.9697C867.735 18.8102 867.77 18.623 867.77 18.4082C867.77 18.1901 867.73 17.9899 867.652 17.8076C867.577 17.6286 867.478 17.4756 867.354 17.3486C867.234 17.2217 867.096 17.1224 866.939 17.0508C866.783 16.9824 866.627 16.9482 866.471 16.9482C866.253 16.9482 866.035 16.9775 865.816 17.0361C865.602 17.098 865.408 17.1875 865.235 17.3047C865.063 17.4251 864.921 17.5749 864.811 17.7539C864.703 17.9329 864.649 18.1413 864.649 18.3789Z" fill="#656D76"/>
<rect x="867" width="1" height="8" fill="#D9D9D9"/>
</svg>
