<svg width="873" height="35" viewBox="0 0 873 35" fill="none" xmlns="http://www.w3.org/2000/svg">
<path d="M6.5791 15.0391C6.00293 15.0391 5.48698 14.9967 5.03125 14.9121C4.57552 14.8307 4.18978 14.6973 3.87402 14.5117C3.55827 14.3294 3.31738 14.0934 3.15137 13.8037C2.98535 13.514 2.90234 13.1624 2.90234 12.749C2.90234 12.3649 2.98535 12.0296 3.15137 11.7432C3.31738 11.46 3.55827 11.224 3.87402 11.0352C4.18978 10.8496 4.57552 10.7096 5.03125 10.6152C5.48698 10.5241 6.00293 10.4785 6.5791 10.4785C7.15527 10.4785 7.67122 10.5192 8.12695 10.6006C8.58268 10.6852 8.9668 10.8171 9.2793 10.9961C9.59505 11.1784 9.83594 11.4128 10.002 11.6992C10.168 11.9889 10.251 12.3389 10.251 12.749C10.251 13.1364 10.168 13.4733 10.002 13.7598C9.83919 14.0462 9.59993 14.2839 9.28418 14.4727C8.97168 14.6615 8.58756 14.8031 8.13184 14.8975C7.67611 14.9919 7.15853 15.0391 6.5791 15.0391ZM6.5791 11.3818C6.09082 11.3818 5.66439 11.4062 5.2998 11.4551C4.93522 11.5039 4.63086 11.582 4.38672 11.6895C4.14583 11.7969 3.96354 11.9368 3.83984 12.1094C3.7194 12.2852 3.65918 12.4984 3.65918 12.749C3.65918 12.9997 3.7194 13.2129 3.83984 13.3887C3.96029 13.5645 4.14095 13.7077 4.38184 13.8184C4.62272 13.9323 4.92546 14.0137 5.29004 14.0625C5.65788 14.1146 6.08756 14.1406 6.5791 14.1406C7.06738 14.1406 7.49381 14.1146 7.8584 14.0625C8.22298 14.0137 8.52572 13.9323 8.7666 13.8184C9.00749 13.7077 9.18815 13.5645 9.30859 13.3887C9.42904 13.2129 9.48926 12.9997 9.48926 12.749C9.48926 12.4984 9.42904 12.2852 9.30859 12.1094C9.18815 11.9368 9.00749 11.7969 8.7666 11.6895C8.52572 11.582 8.22298 11.5039 7.8584 11.4551C7.49382 11.4062 7.06738 11.3818 6.5791 11.3818ZM6.5791 20.5469C6.00293 20.5469 5.48698 20.5046 5.03125 20.4199C4.57552 20.3385 4.18978 20.2051 3.87402 20.0195C3.55827 19.8372 3.31738 19.6012 3.15137 19.3115C2.98535 19.0218 2.90234 18.6702 2.90234 18.2568C2.90234 17.8727 2.98535 17.5374 3.15137 17.251C3.31738 16.9678 3.55827 16.7318 3.87402 16.543C4.18978 16.3574 4.57552 16.2174 5.03125 16.123C5.48698 16.0319 6.00293 15.9863 6.5791 15.9863C7.15527 15.9863 7.67122 16.027 8.12695 16.1084C8.58268 16.193 8.9668 16.3249 9.2793 16.5039C9.59505 16.6862 9.83594 16.9206 10.002 17.207C10.168 17.4967 10.251 17.8467 10.251 18.2568C10.251 18.6442 10.168 18.9811 10.002 19.2676C9.83919 19.554 9.59993 19.7917 9.28418 19.9805C8.97168 20.1693 8.58756 20.3109 8.13184 20.4053C7.67611 20.4997 7.15853 20.5469 6.5791 20.5469ZM6.5791 16.8896C6.09082 16.8896 5.66439 16.9141 5.2998 16.9629C4.93522 17.0117 4.63086 17.0898 4.38672 17.1973C4.14583 17.3047 3.96354 17.4447 3.83984 17.6172C3.7194 17.793 3.65918 18.0062 3.65918 18.2568C3.65918 18.5075 3.7194 18.7207 3.83984 18.8965C3.96029 19.0723 4.14095 19.2155 4.38184 19.3262C4.62272 19.4401 4.92546 19.5215 5.29004 19.5703C5.65788 19.6224 6.08756 19.6484 6.5791 19.6484C7.06738 19.6484 7.49381 19.6224 7.8584 19.5703C8.22298 19.5215 8.52572 19.4401 8.7666 19.3262C9.00749 19.2155 9.18815 19.0723 9.30859 18.8965C9.42904 18.7207 9.48926 18.5075 9.48926 18.2568C9.48926 18.0062 9.42904 17.793 9.30859 17.6172C9.18815 17.4447 9.00749 17.3047 8.7666 17.1973C8.52572 17.0898 8.22298 17.0117 7.8584 16.9629C7.49381 16.9141 7.06738 16.8896 6.5791 16.8896ZM8.00977 22.2363C7.47266 22.2363 7.06901 22.2933 6.79883 22.4072C6.5319 22.5244 6.39844 22.7132 6.39844 22.9736C6.39844 23.4814 6.93555 23.7354 8.00977 23.7354C9.07747 23.7354 9.61133 23.4814 9.61133 22.9736C9.61133 22.7132 9.47786 22.5244 9.21094 22.4072C8.94727 22.2933 8.54687 22.2363 8.00977 22.2363ZM8.00976 24.458C7.6582 24.458 7.34245 24.4287 7.0625 24.3701C6.78255 24.3115 6.54655 24.222 6.35449 24.1016C6.16243 23.9811 6.01432 23.8265 5.91016 23.6377C5.80924 23.4521 5.75879 23.2308 5.75879 22.9736C5.75879 22.736 5.80924 22.526 5.91016 22.3437C6.01432 22.1615 6.16243 22.0085 6.35449 21.8848C6.54655 21.7611 6.78255 21.6683 7.0625 21.6064C7.34245 21.5446 7.6582 21.5137 8.00977 21.5137C8.36133 21.5137 8.67546 21.5413 8.95215 21.5967C9.22884 21.6553 9.46159 21.7432 9.65039 21.8604C9.84245 21.9808 9.98893 22.1322 10.0898 22.3145C10.1908 22.5 10.2412 22.7197 10.2412 22.9736C10.2412 23.2178 10.1908 23.431 10.0898 23.6133C9.98893 23.7988 9.84245 23.9535 9.65039 24.0771C9.46159 24.2041 9.22884 24.2985 8.95215 24.3604C8.67546 24.4255 8.36133 24.458 8.00976 24.458ZM5.14844 26.5479C4.61133 26.5479 4.20931 26.6048 3.94238 26.7187C3.67545 26.8359 3.54199 27.0247 3.54199 27.2852C3.54199 27.793 4.07747 28.0469 5.14844 28.0469C6.21615 28.0469 6.75 27.793 6.75 27.2852C6.75 27.0247 6.61654 26.8359 6.34961 26.7187C6.08594 26.6048 5.68555 26.5479 5.14844 26.5479ZM5.14844 28.7646C4.79687 28.7646 4.48112 28.7354 4.20117 28.6768C3.92448 28.6214 3.6901 28.5335 3.49805 28.4131C3.30599 28.2926 3.15788 28.138 3.05371 27.9492C2.9528 27.7637 2.90234 27.5423 2.90234 27.2852C2.90234 27.0443 2.9528 26.8327 3.05371 26.6504C3.15788 26.4681 3.30599 26.3151 3.49805 26.1914C3.6901 26.071 3.92448 25.9798 4.20117 25.918C4.48112 25.8561 4.79687 25.8252 5.14844 25.8252C5.5 25.8252 5.81413 25.8529 6.09082 25.9082C6.36751 25.9668 6.60026 26.0547 6.78906 26.1719C6.98112 26.2923 7.1276 26.4437 7.22851 26.626C7.32943 26.8115 7.37988 27.0312 7.37988 27.2852C7.37988 27.5293 7.32943 27.7425 7.22851 27.9248C7.1276 28.1104 6.98112 28.265 6.78906 28.3887C6.60026 28.5124 6.36751 28.6051 6.09082 28.667C5.81413 28.7321 5.5 28.7646 5.14844 28.7646ZM10.1387 27.5146L3 23.5547L3 22.7832L10.1387 26.748L10.1387 27.5146Z" fill="#656D76"/>
<rect x="6" width="1" height="8" fill="#D9D9D9"/>
<rect x="119" width="1" height="8" fill="#D9D9D9"/>
<rect x="269" width="1" height="8" fill="#D9D9D9"/>
<path d="M462.38 12.6611C462.38 12.9834 462.334 13.2829 462.243 13.5596C462.155 13.8395 462.023 14.082 461.848 14.2871C461.672 14.4954 461.454 14.6582 461.193 14.7754C460.933 14.8926 460.632 14.9512 460.29 14.9512C459.919 14.9512 459.585 14.8958 459.289 14.7852C458.993 14.6745 458.742 14.5101 458.537 14.292C458.332 14.0739 458.174 13.8037 458.063 13.4814C457.956 13.1624 457.902 12.7946 457.902 12.3779C457.902 12.2119 457.91 12.0475 457.927 11.8848C457.943 11.7253 457.967 11.5706 458 11.4209C458.029 11.2744 458.068 11.1344 458.117 11.001C458.166 10.8675 458.223 10.7471 458.288 10.6396L459.128 10.6396C459.053 10.7471 458.986 10.8724 458.928 11.0156C458.869 11.1621 458.82 11.3151 458.781 11.4746C458.742 11.6341 458.711 11.7936 458.688 11.9531C458.669 12.1159 458.659 12.2656 458.659 12.4023C458.659 12.6595 458.688 12.889 458.747 13.0908C458.809 13.2926 458.903 13.4635 459.03 13.6035C459.157 13.7435 459.317 13.8509 459.509 13.9258C459.701 14.0007 459.929 14.0381 460.192 14.0381C460.658 14.0381 461.013 13.8949 461.257 13.6084C461.504 13.3219 461.628 12.9053 461.628 12.3584C461.628 12.2705 461.623 12.1745 461.613 12.0703C461.607 11.9694 461.597 11.8669 461.584 11.7627C461.571 11.6618 461.556 11.5641 461.54 11.4697C461.527 11.3786 461.514 11.2988 461.501 11.2305L461.779 10.791L465.139 11.0596L465.139 14.4287L464.328 14.4287L464.328 11.8311L462.282 11.6406C462.302 11.7448 462.323 11.8815 462.346 12.0508C462.368 12.2233 462.38 12.4268 462.38 12.6611ZM461.579 20.5469C461.003 20.5469 460.487 20.5046 460.031 20.4199C459.576 20.3385 459.19 20.2051 458.874 20.0195C458.558 19.8372 458.317 19.6012 458.151 19.3115C457.985 19.0218 457.902 18.6702 457.902 18.2568C457.902 17.8727 457.985 17.5374 458.151 17.251C458.317 16.9678 458.558 16.7318 458.874 16.543C459.19 16.3574 459.576 16.2174 460.031 16.123C460.487 16.0319 461.003 15.9863 461.579 15.9863C462.155 15.9863 462.671 16.027 463.127 16.1084C463.583 16.193 463.967 16.3249 464.279 16.5039C464.595 16.6862 464.836 16.9206 465.002 17.207C465.168 17.4967 465.251 17.8467 465.251 18.2568C465.251 18.6442 465.168 18.9811 465.002 19.2676C464.839 19.554 464.6 19.7917 464.284 19.9805C463.972 20.1693 463.588 20.3109 463.132 20.4053C462.676 20.4997 462.159 20.5469 461.579 20.5469ZM461.579 16.8896C461.091 16.8896 460.664 16.9141 460.3 16.9629C459.935 17.0117 459.631 17.0898 459.387 17.1973C459.146 17.3047 458.964 17.4447 458.84 17.6172C458.719 17.793 458.659 18.0062 458.659 18.2568C458.659 18.5075 458.719 18.7207 458.84 18.8965C458.96 19.0723 459.141 19.2155 459.382 19.3262C459.623 19.4401 459.925 19.5215 460.29 19.5703C460.658 19.6224 461.088 19.6484 461.579 19.6484C462.067 19.6484 462.494 19.6224 462.858 19.5703C463.223 19.5215 463.526 19.4401 463.767 19.3262C464.007 19.2155 464.188 19.0723 464.309 18.8965C464.429 18.7207 464.489 18.5075 464.489 18.2568C464.489 18.0062 464.429 17.793 464.309 17.6172C464.188 17.4447 464.007 17.3047 463.767 17.1973C463.526 17.0898 463.223 17.0117 462.858 16.9629C462.494 16.9141 462.067 16.8896 461.579 16.8896ZM463.01 22.2363C462.473 22.2363 462.069 22.2933 461.799 22.4072C461.532 22.5244 461.398 22.7132 461.398 22.9736C461.398 23.4814 461.936 23.7354 463.01 23.7354C464.077 23.7354 464.611 23.4814 464.611 22.9736C464.611 22.7132 464.478 22.5244 464.211 22.4072C463.947 22.2933 463.547 22.2363 463.01 22.2363ZM463.01 24.458C462.658 24.458 462.342 24.4287 462.062 24.3701C461.783 24.3115 461.547 24.222 461.354 24.1016C461.162 23.9811 461.014 23.8265 460.91 23.6377C460.809 23.4521 460.759 23.2308 460.759 22.9736C460.759 22.736 460.809 22.526 460.91 22.3437C461.014 22.1615 461.162 22.0085 461.354 21.8848C461.547 21.7611 461.783 21.6683 462.062 21.6064C462.342 21.5446 462.658 21.5137 463.01 21.5137C463.361 21.5137 463.675 21.5413 463.952 21.5967C464.229 21.6553 464.462 21.7432 464.65 21.8604C464.842 21.9808 464.989 22.1322 465.09 22.3145C465.191 22.5 465.241 22.7197 465.241 22.9736C465.241 23.2178 465.191 23.431 465.09 23.6133C464.989 23.7988 464.842 23.9535 464.65 24.0771C464.462 24.2041 464.229 24.2985 463.952 24.3604C463.675 24.4255 463.361 24.458 463.01 24.458ZM460.148 26.5479C459.611 26.5479 459.209 26.6048 458.942 26.7187C458.675 26.8359 458.542 27.0247 458.542 27.2852C458.542 27.793 459.077 28.0469 460.148 28.0469C461.216 28.0469 461.75 27.793 461.75 27.2852C461.75 27.0247 461.617 26.8359 461.35 26.7187C461.086 26.6048 460.686 26.5479 460.148 26.5479ZM460.148 28.7646C459.797 28.7646 459.481 28.7354 459.201 28.6768C458.924 28.6214 458.69 28.5335 458.498 28.4131C458.306 28.2926 458.158 28.138 458.054 27.9492C457.953 27.7637 457.902 27.5423 457.902 27.2852C457.902 27.0443 457.953 26.8327 458.054 26.6504C458.158 26.4681 458.306 26.3151 458.498 26.1914C458.69 26.071 458.924 25.9798 459.201 25.918C459.481 25.8561 459.797 25.8252 460.148 25.8252C460.5 25.8252 460.814 25.8529 461.091 25.9082C461.368 25.9668 461.6 26.0547 461.789 26.1719C461.981 26.2923 462.128 26.4437 462.229 26.626C462.329 26.8115 462.38 27.0312 462.38 27.2852C462.38 27.5293 462.329 27.7425 462.229 27.9248C462.128 28.1104 461.981 28.265 461.789 28.3887C461.6 28.5124 461.368 28.6051 461.091 28.667C460.814 28.7321 460.5 28.7646 460.148 28.7646ZM465.139 27.5146L458 23.5547L458 22.7832L465.139 26.748L465.139 27.5146Z" fill="#656D76"/>
<rect x="461" width="1" height="8" fill="#D9D9D9"/>
<rect x="669" width="1" height="8" fill="#D9D9D9"/>
<path d="M864 13.4717L864 12.6123L868.458 12.6123C868.598 12.6123 868.748 12.6123 868.907 12.6123C869.067 12.6156 869.225 12.6188 869.381 12.6221C869.54 12.6286 869.692 12.6335 869.835 12.6367C869.981 12.6432 870.11 12.6481 870.221 12.6514C870.162 12.596 870.112 12.5472 870.069 12.5049C870.027 12.4626 869.986 12.4186 869.947 12.373C869.908 12.3307 869.866 12.2852 869.82 12.2363C869.778 12.1875 869.728 12.1289 869.669 12.0605L869.078 11.3379L869.679 10.8691L871.139 12.7393L871.139 13.4717L864 13.4717ZM867.579 20.5469C867.003 20.5469 866.487 20.5046 866.031 20.4199C865.576 20.3385 865.19 20.2051 864.874 20.0195C864.558 19.8372 864.317 19.6012 864.151 19.3115C863.985 19.0218 863.902 18.6702 863.902 18.2568C863.902 17.8727 863.985 17.5374 864.151 17.251C864.317 16.9678 864.558 16.7318 864.874 16.543C865.19 16.3574 865.576 16.2174 866.031 16.123C866.487 16.0319 867.003 15.9863 867.579 15.9863C868.155 15.9863 868.671 16.027 869.127 16.1084C869.583 16.193 869.967 16.3249 870.279 16.5039C870.595 16.6862 870.836 16.9206 871.002 17.207C871.168 17.4967 871.251 17.8467 871.251 18.2568C871.251 18.6442 871.168 18.9811 871.002 19.2676C870.839 19.554 870.6 19.7917 870.284 19.9805C869.972 20.1693 869.588 20.3109 869.132 20.4053C868.676 20.4997 868.159 20.5469 867.579 20.5469ZM867.579 16.8896C867.091 16.8896 866.664 16.9141 866.3 16.9629C865.935 17.0117 865.631 17.0898 865.387 17.1973C865.146 17.3047 864.964 17.4447 864.84 17.6172C864.719 17.793 864.659 18.0062 864.659 18.2568C864.659 18.5075 864.719 18.7207 864.84 18.8965C864.96 19.0723 865.141 19.2155 865.382 19.3262C865.623 19.4401 865.925 19.5215 866.29 19.5703C866.658 19.6224 867.088 19.6484 867.579 19.6484C868.067 19.6484 868.494 19.6224 868.858 19.5703C869.223 19.5215 869.526 19.4401 869.767 19.3262C870.007 19.2155 870.188 19.0723 870.309 18.8965C870.429 18.7207 870.489 18.5075 870.489 18.2568C870.489 18.0062 870.429 17.793 870.309 17.6172C870.188 17.4447 870.007 17.3047 869.767 17.1973C869.526 17.0898 869.223 17.0117 868.858 16.9629C868.494 16.9141 868.067 16.8896 867.579 16.8896ZM867.579 26.0547C867.003 26.0547 866.487 26.0124 866.031 25.9277C865.576 25.8464 865.19 25.7129 864.874 25.5273C864.558 25.3451 864.317 25.109 864.151 24.8193C863.985 24.5296 863.902 24.1781 863.902 23.7646C863.902 23.3805 863.985 23.0452 864.151 22.7588C864.317 22.4756 864.558 22.2396 864.874 22.0508C865.19 21.8652 865.576 21.7253 866.031 21.6309C866.487 21.5397 867.003 21.4941 867.579 21.4941C868.155 21.4941 868.671 21.5348 869.127 21.6162C869.583 21.7008 869.967 21.8327 870.279 22.0117C870.595 22.194 870.836 22.4284 871.002 22.7148C871.168 23.0046 871.251 23.3545 871.251 23.7646C871.251 24.152 871.168 24.4889 871.002 24.7754C870.839 25.0618 870.6 25.2995 870.284 25.4883C869.972 25.6771 869.588 25.8187 869.132 25.9131C868.676 26.0075 868.159 26.0547 867.579 26.0547ZM867.579 22.3975C867.091 22.3975 866.664 22.4219 866.3 22.4707C865.935 22.5195 865.631 22.5977 865.387 22.7051C865.146 22.8125 864.964 22.9525 864.84 23.125C864.719 23.3008 864.659 23.514 864.659 23.7646C864.659 24.0153 864.719 24.2285 864.84 24.4043C864.96 24.5801 865.141 24.7233 865.382 24.834C865.623 24.9479 865.925 25.0293 866.29 25.0781C866.658 25.1302 867.088 25.1562 867.579 25.1562C868.067 25.1562 868.494 25.1302 868.858 25.0781C869.223 25.0293 869.526 24.9479 869.767 24.834C870.007 24.7233 870.188 24.5801 870.309 24.4043C870.429 24.2285 870.489 24.0153 870.489 23.7646C870.489 23.514 870.429 23.3008 870.309 23.125C870.188 22.9525 870.007 22.8125 869.767 22.7051C869.526 22.5977 869.223 22.5195 868.858 22.4707C868.494 22.4219 868.067 22.3975 867.579 22.3975ZM869.01 27.7441C868.473 27.7441 868.069 27.8011 867.799 27.915C867.532 28.0322 867.398 28.221 867.398 28.4814C867.398 28.9893 867.936 29.2432 869.01 29.2432C870.077 29.2432 870.611 28.9893 870.611 28.4814C870.611 28.221 870.478 28.0322 870.211 27.915C869.947 27.8011 869.547 27.7441 869.01 27.7441ZM869.01 29.9658C868.658 29.9658 868.342 29.9365 868.062 29.8779C867.783 29.8193 867.547 29.7298 867.354 29.6094C867.162 29.4889 867.014 29.3343 866.91 29.1455C866.809 28.96 866.759 28.7386 866.759 28.4814C866.759 28.2438 866.809 28.0339 866.91 27.8516C867.014 27.6693 867.162 27.5163 867.354 27.3926C867.547 27.2689 867.783 27.1761 868.062 27.1143C868.342 27.0524 868.658 27.0215 869.01 27.0215C869.361 27.0215 869.675 27.0492 869.952 27.1045C870.229 27.1631 870.462 27.251 870.65 27.3682C870.842 27.4886 870.989 27.64 871.09 27.8223C871.191 28.0078 871.241 28.2275 871.241 28.4814C871.241 28.7256 871.191 28.9388 871.09 29.1211C870.989 29.3066 870.842 29.4613 870.65 29.585C870.462 29.7119 870.229 29.8063 869.952 29.8682C869.675 29.9333 869.361 29.9658 869.01 29.9658ZM866.148 32.0557C865.611 32.0557 865.209 32.1126 864.942 32.2266C864.675 32.3437 864.542 32.5326 864.542 32.793C864.542 33.3008 865.077 33.5547 866.148 33.5547C867.216 33.5547 867.75 33.3008 867.75 32.793C867.75 32.5326 867.617 32.3437 867.35 32.2266C867.086 32.1126 866.686 32.0557 866.148 32.0557ZM866.148 34.2725C865.797 34.2725 865.481 34.2432 865.201 34.1846C864.924 34.1292 864.69 34.0413 864.498 33.9209C864.306 33.8005 864.158 33.6458 864.054 33.457C863.953 33.2715 863.902 33.0501 863.902 32.793C863.902 32.5521 863.953 32.3405 864.054 32.1582C864.158 31.9759 864.306 31.8229 864.498 31.6992C864.69 31.5788 864.924 31.4876 865.201 31.4258C865.481 31.3639 865.797 31.333 866.148 31.333C866.5 31.333 866.814 31.3607 867.091 31.416C867.368 31.4746 867.6 31.5625 867.789 31.6797C867.981 31.8001 868.128 31.9515 868.229 32.1338C868.329 32.3193 868.38 32.5391 868.38 32.793C868.38 33.0371 868.329 33.2503 868.229 33.4326C868.128 33.6182 867.981 33.7728 867.789 33.8965C867.6 34.0202 867.368 34.113 867.091 34.1748C866.814 34.2399 866.5 34.2725 866.148 34.2725ZM871.139 33.0225L864 29.0625L864 28.291L871.139 32.2559L871.139 33.0225Z" fill="#656D76"/>
<rect x="867" width="1" height="8" fill="#D9D9D9"/>
</svg>
