<svg width="60" height="60" viewBox="0 0 60 60" fill="none" xmlns="http://www.w3.org/2000/svg">
<g clip-path="url(#clip0_841_4410)">
<circle cx="46.1514" cy="43.8468" r="2.30769" fill="#C5D31E"/>
<circle cx="39.2257" cy="43.8468" r="2.30769" fill="#C5D31E"/>
<circle cx="31.5343" cy="43.8468" r="2.30769" fill="#C5D31E"/>
<circle cx="23.8428" cy="43.8468" r="2.30769" fill="#C5D31E"/>
<circle cx="46.1514" cy="36.1514" r="2.30769" fill="#C5D31E"/>
<circle cx="39.2257" cy="36.1514" r="2.30769" fill="#C5D31E"/>
<circle cx="31.5343" cy="36.1514" r="2.30769" fill="#C5D31E"/>
<circle cx="46.1514" cy="28.4639" r="2.30769" fill="#C5D31E"/>
<circle cx="39.2257" cy="28.4639" r="2.30769" fill="#C5D31E"/>
<circle cx="46.1514" cy="20.7686" r="2.30769" fill="#C5D31E"/>
<path d="M30.9303 16.5453L20.6251 17.2739C20.5463 17.2798 20.4718 17.3134 20.4148 17.3703L19.1225 18.6627C19.0144 18.7707 19.0991 18.9547 19.251 18.943L28.8041 18.2684L10.9128 36.1597C10.8486 36.2239 10.8486 36.3291 10.9128 36.3933L11.789 37.2695C11.8533 37.3337 11.9584 37.3337 12.0226 37.2695L29.9124 19.3797L29.2378 28.9328C29.2276 29.0861 29.4101 29.1693 29.5182 29.0613L30.8543 27.7251C30.8821 27.6974 30.8996 27.6594 30.9011 27.62L31.637 17.252C31.6436 17.1575 31.6299 17.0627 31.5967 16.974C31.5635 16.8852 31.5116 16.8046 31.4447 16.7376C31.3777 16.6707 31.2971 16.6188 31.2083 16.5856C31.1196 16.5524 31.0248 16.5387 30.9303 16.5453Z" fill="#248F37"/>
</g>
<circle opacity="0.1" cx="30" cy="30" r="29.5" stroke="black"/>
<defs>
<clipPath id="clip0_841_4410">
<rect width="40" height="40" fill="white" transform="translate(10 10)"/>
</clipPath>
</defs>
</svg>
