<svg width="60" height="60" viewBox="0 0 60 60" fill="none" xmlns="http://www.w3.org/2000/svg">
<path fill-rule="evenodd" clip-rule="evenodd" d="M29.8563 48.4502C28.7211 48.4502 27.5858 48.451 26.4505 48.4519C23.8968 48.4539 21.343 48.4558 18.7892 48.4479C14.2691 48.4317 11.3627 45.299 11.5474 40.7674C11.8706 32.7429 15.8597 26.7777 21.9773 21.9852C22.0529 21.926 22.1284 21.8666 22.204 21.8072L22.2045 21.8068L22.2045 21.8068C22.7334 21.3908 23.2645 20.9731 23.838 20.6277C24.3897 20.2953 24.3343 20.0206 24.0042 19.5612C23.3075 18.5861 22.6258 17.601 21.944 16.6159L21.944 16.6159C21.4895 15.9592 21.035 15.3024 20.576 14.6487C20.1166 13.993 19.7427 13.3189 20.1744 12.5202C20.613 11.7076 21.3817 11.5391 22.2359 11.5391C27.347 11.5483 32.4557 11.5483 37.5668 11.5391C38.4164 11.5391 39.2013 11.666 39.6584 12.4648C40.1316 13.2935 39.7507 14.0046 39.2613 14.6948C38.8756 15.2403 38.4972 15.7912 38.1189 16.3421C37.4532 17.3113 36.7875 18.2804 36.0824 19.2195C35.5422 19.9375 35.5053 20.293 36.3341 20.8632C40.4479 23.6866 43.846 27.1701 46.0876 31.7064C47.5997 34.7675 48.3107 37.9994 48.3361 41.3838C48.3684 45.3891 45.402 48.3971 41.3828 48.4409C38.7105 48.4698 36.0371 48.463 33.3641 48.4562H33.3638C32.1945 48.4532 31.0253 48.4502 29.8563 48.4502ZM29.8531 46.1424C28.6112 46.1424 27.3691 46.1429 26.1268 46.1434C23.6421 46.1445 21.157 46.1455 18.6729 46.1424C15.6233 46.1378 13.6565 44.0693 13.7534 41.0152C13.9404 35.1815 16.2997 30.3151 20.4089 26.2752C24.7313 22.0271 24.9196 22.0224 30.6417 21.882L31.109 21.8705C33.3921 21.8128 35.1281 22.5077 36.8341 23.9182C41.158 27.4895 44.4938 31.6587 45.6619 37.2892C45.9274 38.5727 46.0613 39.8701 46.1121 41.1768C46.2229 43.9885 44.1822 46.1286 41.375 46.1401C38.6313 46.15 35.8865 46.1481 33.1421 46.1462H33.1419C32.044 46.1455 30.9461 46.1447 29.8485 46.1447L29.8531 46.1424ZM37.0595 13.932C37.0601 13.9312 37.0606 13.9305 37.0611 13.9297V13.932H37.0595ZM36.0486 15.403C36.3806 14.9204 36.7173 14.4311 37.0595 13.932H22.8105C23.121 14.385 23.4267 14.8302 23.7285 15.2698C24.663 16.6309 25.56 17.9374 26.4465 19.2532C26.6796 19.5994 26.9821 19.6225 27.3376 19.6225C29.062 19.6156 30.7888 19.611 32.5133 19.6248C32.9242 19.6271 33.2266 19.5487 33.4783 19.1724C34.3136 17.9244 35.1647 16.6874 36.0486 15.403Z" fill="#248F37"/>
<path d="M32.4438 30.9194C31.8021 30.8202 31.1603 30.7047 30.5162 30.6286C30.1376 30.5824 29.7452 30.5408 29.3735 30.5962C28.6163 30.707 27.7137 30.7855 27.619 31.7551C27.5313 32.6578 28.4154 32.7663 29.0318 33.004C30.1722 33.4427 31.3657 33.7174 32.4738 34.2691C33.8197 34.9386 34.5469 35.9636 34.4776 37.4641C34.4061 39.0085 33.5635 40.0866 32.1206 40.546C31.2965 40.8092 30.9248 41.1208 31.0172 42.0281C31.0887 42.7229 30.7055 43.1916 29.9137 43.1847C29.108 43.1777 28.771 42.6722 28.8494 41.9911C28.9649 40.9985 28.5586 40.6245 27.6282 40.5045C27.1111 40.4375 26.6148 40.1697 26.1185 39.9666C25.4928 39.7103 25.2204 39.2394 25.4628 38.5861C25.6983 37.9512 26.2154 37.7042 26.8526 37.8866C27.7344 38.1382 28.5794 38.5053 29.5028 38.6253C30.1676 38.7107 30.8094 38.6484 31.4281 38.4245C31.8829 38.2606 32.2107 37.9327 32.2615 37.4156C32.3122 36.8777 32.0075 36.5245 31.5643 36.3329C30.8994 36.0467 30.2069 35.8204 29.5235 35.5734C28.9141 35.3518 28.2954 35.151 27.6906 34.9201C26.2639 34.3776 25.3728 33.3896 25.3959 31.8151C25.419 30.2061 26.3378 29.1511 27.8106 28.6548C28.5678 28.3985 28.9349 28.0892 28.8518 27.2396C28.7848 26.5586 29.1057 26.0507 29.9114 26.0392C30.7009 26.03 31.1187 26.5009 31.0149 27.1865C30.8509 28.26 31.4373 28.4793 32.2661 28.6086C32.5616 28.6548 32.8686 28.761 33.1179 28.9226C33.6004 29.2342 33.7089 29.719 33.5127 30.2384C33.3349 30.7117 32.9933 30.9956 32.4485 30.9194H32.4438Z" fill="#C5D31E"/>
<circle opacity="0.1" cx="30" cy="30" r="29.5" stroke="black"/>
</svg>
