<svg width="60" height="60" viewBox="0 0 60 60" fill="none" xmlns="http://www.w3.org/2000/svg">
<path d="M18.125 30.4914C19.2241 29.4551 20.3573 28.6973 21.9216 29.2045C22.4772 29.3835 22.9525 29.6719 23.3556 30.0737C25.5658 32.2796 27.8843 34.38 30.0062 36.7271C31.8032 34.6883 33.8228 32.8644 35.7522 30.9529C38.2532 28.4765 39.1176 28.4168 41.9054 30.4297C42.2002 30.1214 42.0658 29.7395 42.0678 29.3934C42.0799 27.0762 42.0678 24.757 42.0759 22.4397C42.0859 19.9474 43.8007 18.0896 46.057 18.1095C48.3253 18.1294 49.992 19.9693 49.996 22.4835C50.002 26.754 49.992 31.0265 50 35.297C50.004 37.3238 49.292 39.0463 47.852 40.4765C46.2234 42.0936 44.5909 43.7047 42.9664 45.3258C42.489 45.8012 41.9997 46.2408 41.3699 45.5764C40.7622 44.9339 41.1854 44.4446 41.6667 43.9693C43.2291 42.4277 44.7714 40.8663 46.3478 39.3407C47.5411 38.1871 48.1007 36.8186 48.0907 35.1637C48.0646 30.8932 48.0907 26.6207 48.0786 22.3502C48.0746 20.9618 47.3947 20.1662 46.2154 20.0986C44.8316 20.019 44.0012 20.8087 43.9872 22.2846C43.9671 24.6356 43.9571 26.9867 43.9872 29.3378C44.0173 31.5257 43.2331 33.3139 41.5985 34.7937C40.317 35.9534 39.1236 37.2084 37.8982 38.4277C37.4349 38.8872 36.9596 39.2433 36.3699 38.6406C35.8064 38.0637 36.0872 37.5724 36.5665 37.103C37.6595 36.0329 38.7486 34.9588 39.8236 33.8708C40.698 32.9857 40.7782 32.0926 40.0723 31.4442C39.3723 30.8017 38.4698 30.9091 37.6054 31.7684C35.8144 33.5506 34.0374 35.3467 32.2464 37.1309C31.376 37.9981 30.9548 39.0404 30.9528 40.2577C30.9528 41.7137 30.9388 43.1716 30.9588 44.6276C30.9689 45.3079 30.7783 45.8827 30.0282 45.8986C29.21 45.9145 29.0234 45.3099 29.0335 44.5938C29.0535 43.1697 29.0335 41.7455 29.0415 40.3233C29.0475 39.108 28.6604 38.0498 27.792 37.1786C25.9589 35.3427 24.1278 33.5088 22.2967 31.6709C22.0099 31.3825 21.697 31.1199 21.2939 31.0543C20.61 30.9429 20.0344 31.1478 19.6814 31.7783C19.2843 32.4884 19.4567 33.1369 19.9922 33.6858C21.0151 34.7321 22.064 35.7525 23.1009 36.7848C23.2894 36.9718 23.484 37.1547 23.6585 37.3536C24.0536 37.8072 24.0255 38.2567 23.5983 38.6724C23.1932 39.0662 22.756 39.0603 22.3609 38.6724C20.7042 37.0394 19.0075 35.4422 17.4291 33.7375C16.3762 32.6018 16.0091 31.1398 16.0131 29.5963C16.0192 27.2791 16.0172 24.9598 16.0131 22.6426C16.0131 20.8982 15.3493 20.0886 13.9394 20.0986C12.5755 20.1085 11.9157 20.9141 11.9137 22.5909C11.9097 26.7957 11.9277 31.0006 11.9057 35.2055C11.8977 36.8226 12.4432 38.1692 13.6064 39.2989C15.1327 40.7828 16.6329 42.2925 18.1431 43.7902C18.3075 43.9533 18.478 44.1145 18.6324 44.2895C19.0296 44.735 19.0255 45.1866 18.6024 45.6102C18.1591 46.0518 17.7079 45.9941 17.2907 45.5764C15.3874 43.6729 13.45 41.7972 11.6008 39.8439C10.4677 38.6346 10.0124 37.103 10.0104 35.4561C10.0004 31.0523 9.99234 26.6486 10.0124 22.2448C10.0244 19.9096 11.8014 18.0936 13.9875 18.1095C16.1856 18.1254 17.9084 19.9315 17.9265 22.2806C17.9465 24.6635 17.9265 27.0484 17.9365 29.4332C17.9365 29.7535 17.8402 30.0936 18.125 30.4914Z" fill="#248F37"/>
<path d="M32.5332 24.5874C32.489 23.9648 32.0578 23.6585 31.5404 23.4676C30.4513 23.0618 29.3463 22.7018 28.2572 22.298C26.9275 21.8027 26.029 20.9335 26.0531 19.4357C26.0771 17.8883 26.9516 16.9057 28.3936 16.4482C28.9532 16.2712 29.1036 15.9867 29.0514 15.4576C28.9812 14.7416 29.2259 14.1409 30.0422 14.1648C30.7943 14.1866 31.0209 14.7694 30.9527 15.4417C30.8946 16.0146 31.0791 16.301 31.7008 16.3189C32.0939 16.3308 32.493 16.4343 32.8701 16.5576C33.4517 16.7485 33.7626 17.1583 33.5741 17.7809C33.3915 18.3855 32.9644 18.6063 32.3326 18.4353C31.5604 18.2284 30.7803 18.0713 29.968 18.0991C29.4887 18.115 29.0434 18.2224 28.6343 18.4591C27.7378 18.9783 27.7177 19.7659 28.5841 20.3149C29.0374 20.6013 29.5408 20.7704 30.0582 20.9076C31.0269 21.1622 31.9415 21.5441 32.834 22.0016C33.9331 22.5665 34.4726 23.4656 34.4585 24.6431C34.4425 25.8803 33.917 26.8887 32.7457 27.4616C32.3908 27.6346 32.0137 27.7838 31.6286 27.8713C31.1332 27.9847 30.8846 28.1995 30.9487 28.7445C31.029 29.4268 30.7562 29.9937 30.0141 29.9956C29.1999 29.9956 28.9672 29.379 29.0534 28.6709C29.1337 28.0086 28.8609 27.7301 28.2171 27.6207C27.6997 27.5312 27.1963 27.3303 26.7029 27.1334C26.1674 26.9206 25.9167 26.5049 26.1012 25.94C26.2978 25.3353 26.753 25.1284 27.3647 25.3035C28.0988 25.5143 28.8188 25.7769 29.5589 25.9618C30.319 26.1508 31.0811 26.111 31.8071 25.7769C32.3165 25.5422 32.5612 25.1463 32.5352 24.5894L32.5332 24.5874Z" fill="#C5D31E"/>
<circle opacity="0.1" cx="30" cy="30" r="29.5" stroke="black"/>
</svg>
