<svg width="20" height="20" viewBox="0 0 20 20" fill="none" xmlns="http://www.w3.org/2000/svg">
<g clip-path="url(#clip0_981_4911)">
<path d="M20 10C20 15.5229 15.5229 20 10 20C4.47708 20 0 15.5229 0 10C0 4.47708 4.47708 0 10 0C15.5229 0 20 4.47708 20 10Z" fill="#FEBE02"/>
<path d="M10.0001 15.8335C8.00518 15.8335 6.16924 14.8269 5.08922 13.1418C4.96517 12.9485 5.02178 12.6902 5.21511 12.5669C5.406 12.4427 5.66509 12.4978 5.79006 12.6928C6.71764 14.1378 8.29098 15.0002 10.0001 15.0002C11.7092 15.0002 13.2826 14.1378 14.2092 12.6919C14.3335 12.4978 14.5935 12.4419 14.7844 12.566C14.9777 12.6894 15.0351 12.9478 14.9101 13.1411C13.831 14.8269 11.995 15.8335 10.0001 15.8335Z" fill="#0D1117"/>
<path d="M5.41383 10.0027C4.29383 10.0027 3.41965 9.52094 3.33543 8.85764C3.30628 8.62936 3.46802 8.42093 3.6963 8.39178C3.91801 8.36356 4.133 8.52438 4.16291 8.75266C4.17802 8.87427 4.63456 9.16937 5.41383 9.16937C6.26298 9.16937 6.6655 8.83521 6.6655 8.75266C6.6655 8.75021 6.65131 8.49097 5.44877 8.34265L5.36042 8.33182C4.75129 8.25766 3.33207 8.08432 3.33207 7.08594C3.33207 6.3735 4.22791 5.83594 5.41718 5.83594C6.53718 5.83594 7.41135 6.31766 7.49543 6.98019C7.52457 7.20847 7.36298 7.41675 7.13456 7.44605C6.90873 7.47015 6.69801 7.31345 6.66795 7.08517C6.65299 6.96433 6.1963 6.66937 5.41718 6.66937C4.60877 6.66937 4.1655 6.98187 4.1655 7.08594C4.1655 7.08853 4.17969 7.34763 5.38636 7.49518C5.3888 7.49518 5.47211 7.50601 5.47288 7.50601C6.08384 7.58185 7.49879 7.75595 7.49879 8.75266C7.49879 9.46509 6.60294 10.0027 5.41383 10.0027Z" fill="#0D1117"/>
<path d="M5.41672 10.8333C5.18661 10.8333 5 10.6467 5 10.4167V5.41672C5 5.18661 5.18661 5 5.41672 5C5.64667 5 5.83328 5.18661 5.83328 5.41672V10.4167C5.83328 10.6467 5.64667 10.8333 5.41672 10.8333Z" fill="#0D1117"/>
<path d="M14.5816 10.0027C13.4616 10.0027 12.5875 9.52094 12.5034 8.85764C12.4743 8.62936 12.6358 8.42093 12.8643 8.39178C13.0875 8.36356 13.3008 8.52438 13.3309 8.75266C13.3468 8.8735 13.8034 9.16937 14.5826 9.16937C15.4309 9.16937 15.8333 8.83521 15.8333 8.75266C15.8333 8.75021 15.8191 8.49097 14.6167 8.34265L14.5284 8.33105C13.9193 8.25766 12.5 8.08432 12.5 7.08594C12.5 6.3735 13.3959 5.83594 14.585 5.83594C15.705 5.83594 16.5792 6.31766 16.6634 6.98019C16.6925 7.20847 16.5308 7.41675 16.3025 7.44605C16.0776 7.47015 15.8658 7.31345 15.8359 7.08517C15.8208 6.96433 15.3643 6.66937 14.585 6.66937C13.7767 6.66937 13.3333 6.98187 13.3333 7.08594C13.3333 7.08853 13.3475 7.34763 14.5542 7.49518C14.5568 7.49518 14.6401 7.50601 14.6408 7.50601C15.2517 7.58185 16.6668 7.75595 16.6668 8.75266C16.6668 9.46509 15.7709 10.0027 14.5816 10.0027Z" fill="#0D1117"/>
<path d="M14.5845 10.8333C14.3546 10.8333 14.168 10.6467 14.168 10.4167V5.41672C14.168 5.18661 14.3546 5 14.5845 5C14.8146 5 15.0013 5.18661 15.0013 5.41672V10.4167C15.0013 10.6467 14.8146 10.8333 14.5845 10.8333Z" fill="#0D1117"/>
</g>
<defs>
<clipPath id="clip0_981_4911">
<rect width="20" height="20" fill="white"/>
</clipPath>
</defs>
</svg>
